<svg width="395" height="244" viewBox="0 0 395 244" fill="none" xmlns="http://www.w3.org/2000/svg">
<path d="M120.92 86.4471C119.571 89.645 117.556 92.9835 114.879 96.4679C112.212 99.9419 109.259 103.296 106.025 106.53C102.785 109.754 99.5922 112.687 96.4412 115.322L97.5453 115.051C102.597 113.843 107.03 113.65 110.837 114.468C114.655 115.291 117.472 117.067 119.295 119.801C121.113 122.525 121.41 126.207 120.191 130.843C119.077 134.551 117.03 138.322 114.045 142.155C111.071 145.989 107.53 149.567 103.42 152.885C99.3214 156.192 95.0766 159.036 90.6912 161.426C86.3005 163.812 82.2641 165.447 78.587 166.322C75.8474 166.973 73.4308 167.103 71.337 166.718C69.238 166.327 67.6703 165.312 66.6287 163.676C66.2641 163.103 66.3474 162.76 66.8787 162.635C67.4308 162.603 68.0505 162.53 68.7328 162.405C69.4255 162.291 70.1391 162.145 70.8787 161.968C74.1391 161.187 77.7589 159.718 81.7328 157.551C85.7172 155.385 89.738 152.76 93.7953 149.676C97.8474 146.593 101.509 143.405 104.775 140.114C108.051 136.822 110.613 133.687 112.462 130.697C114.321 127.697 115.035 125.103 114.608 122.905C114.191 120.713 112.254 119.312 108.795 118.697C107.254 118.395 105.608 118.312 103.858 118.447C102.118 118.588 100.306 118.885 98.4203 119.343C95.8891 119.942 93.3058 120.812 90.6703 121.947C88.0453 123.088 85.5766 124.379 83.2745 125.822C81.8162 130.504 80.5662 135.197 79.5245 139.905C78.4828 144.603 77.7433 149.291 77.3162 153.968C74.4933 154.291 72.7016 153.317 71.9412 151.051C71.1755 148.791 71.0453 145.817 71.5453 142.135C72.0558 138.457 72.8891 134.614 74.0453 130.614C75.212 126.614 76.3474 123.004 77.462 119.78C78.587 116.562 79.3578 114.4 79.7745 113.301C81.7745 107.707 83.8578 102.364 86.0245 97.2804C88.2016 92.1971 90.1912 87.7179 91.9828 83.8429C93.7849 79.9679 95.0974 77.1554 95.9203 75.4054C98.5453 76.2127 100.275 76.9627 101.108 77.6554C101.952 78.3377 101.785 79.9366 100.608 82.4471C98.4412 87.421 96.2172 92.4887 93.9412 97.6554C91.6755 102.812 89.5245 108.072 87.4828 113.447C90.2849 111.228 93.3214 108.468 96.587 105.176C99.863 101.885 103.004 98.3794 106.004 94.6554C109.014 90.9366 111.472 87.3533 113.379 83.9054C115.28 80.4471 116.275 77.4002 116.358 74.7596C116.452 72.1241 115.259 70.2596 112.775 69.1762C110.743 68.1085 108.368 67.5929 105.65 67.6346C102.926 67.6762 99.8839 68.1033 96.5245 68.9054C91.4672 70.1137 86.1391 72.0616 80.5453 74.7387C74.9464 77.4054 69.6183 80.5096 64.5662 84.0512C59.5245 87.5929 55.212 91.296 51.6287 95.1554C48.0453 99.02 45.6391 102.77 44.3995 106.405C43.1495 110.03 43.6287 113.197 45.837 115.905C46.936 117.197 48.1912 118.01 49.6078 118.343C51.0245 118.676 52.2745 118.796 53.3578 118.697C54.4412 118.603 54.9985 118.609 55.0245 118.718C55.2641 118.775 55.1235 119.004 54.6078 119.405C54.0818 119.812 53.3474 120.124 52.3995 120.343C51.1495 120.65 49.5558 120.697 47.6078 120.489C45.6651 120.28 43.8474 119.525 42.1495 118.218C40.4412 116.9 39.1078 114.739 38.1495 111.739C37.4308 108.687 37.5974 105.504 38.6495 102.197C39.6912 98.8794 41.1703 95.8794 43.087 93.1971C47.0193 87.8116 51.6183 83.0669 56.8787 78.9679C62.1287 74.8585 67.6183 71.4262 73.3578 68.6762C79.0922 65.9262 84.6964 63.9002 90.1703 62.5929C95.6391 61.2752 100.78 60.7596 105.587 61.0512C110.389 61.3429 114.259 62.5304 117.191 64.6137C119.858 66.421 121.65 69.2491 122.566 73.0929C123.483 76.9419 122.931 81.395 120.92 86.4471Z" fill="black"/>
<path d="M155.12 121.985C155.505 122.224 155.859 122.308 156.182 122.235C157.015 122.026 157.984 121.099 159.099 119.443C160.208 117.776 161.37 115.75 162.578 113.36C163.786 110.959 164.932 108.542 166.015 106.11C167.099 103.683 167.984 101.604 168.682 99.8805C169.39 98.1617 169.771 97.1721 169.828 96.9221C170.453 96.7711 170.937 96.7346 171.286 96.818C171.646 96.9013 172.041 97.3388 172.474 98.1305C171.984 99.4638 171.151 101.724 169.974 104.901C168.791 108.084 167.375 111.459 165.724 115.026C164.068 118.584 162.234 121.745 160.224 124.505C158.208 127.255 156.151 128.88 154.057 129.38C152.776 129.688 151.484 129.453 150.182 128.672C148.276 127.563 147.015 125.834 146.39 123.485C145.776 121.125 145.37 118.86 145.161 116.693C145.203 116.334 145.182 116 145.099 115.693C144.125 118.599 143.088 121.599 141.995 124.693C140.896 127.792 139.776 130.563 138.64 133.005C137.5 135.438 136.271 137.151 134.953 138.151C134.838 138.183 134.713 138.245 134.578 138.339C134.437 138.422 134.255 138.495 134.036 138.547C133.62 138.646 133.208 138.662 132.807 138.589C132.401 138.521 131.916 138.443 131.349 138.36C128.541 137.792 126.635 136.104 125.62 133.297C124.609 130.479 124.224 127.042 124.474 122.985C124.724 118.917 125.422 114.714 126.557 110.38C127.682 106.047 129.021 102.026 130.578 98.318C132.146 94.5992 133.687 91.7138 135.203 89.6722C136.953 87.2555 138.672 85.8492 140.37 85.443C141.203 85.2347 142 85.2451 142.765 85.4638C143.541 85.6722 144.208 85.9847 144.765 86.4013C147.015 87.8753 148.37 89.8128 148.828 92.2138C149.286 94.6044 149.479 97.0211 149.411 99.4638C150.172 98.9638 150.818 98.6513 151.349 98.5263C153.125 98.0992 154.974 98.5888 156.89 100.005C157.526 100.422 157.87 100.735 157.911 100.943C157.963 101.151 157.729 101.542 157.203 102.11C155.937 103.766 155.146 106.13 154.828 109.214C154.505 112.287 154.411 114.813 154.536 116.797C154.38 119.38 154.578 121.11 155.12 121.985ZM142.224 96.693C141.041 98.7503 139.88 101.589 138.745 105.214C137.604 108.828 136.625 112.537 135.807 116.339C135 120.146 134.479 123.417 134.245 126.151C134.005 128.875 134.213 130.438 134.87 130.839C135.703 130.63 136.682 129.167 137.807 126.443C138.943 123.724 140.208 120.5 141.599 116.776C142.984 113.058 144.318 109.646 145.599 106.547C145.818 105.62 146.047 104.735 146.286 103.901C146.536 103.058 146.963 102.287 147.578 101.589C146.963 96.2867 146.036 93.7867 144.786 94.0888C144.37 94.1878 143.963 94.4794 143.578 94.9638C143.187 95.4378 142.734 96.0159 142.224 96.693Z" fill="black"/>
<path d="M187.028 57.251C186.07 58.8239 184.909 61.5531 183.549 65.4385C182.2 69.3291 180.825 73.9176 179.424 79.2093C178.018 84.4906 176.679 90.1468 175.403 96.1885C174.122 102.23 172.987 108.183 171.987 114.043C170.997 119.892 170.289 125.313 169.862 130.313C169.445 135.298 169.403 139.423 169.737 142.688C168.57 142.855 167.539 142.48 166.653 141.563C165.768 140.657 165.06 139.553 164.528 138.251C163.987 136.944 163.622 135.866 163.424 135.022C162.997 131.897 163.008 127.668 163.466 122.334C163.924 116.991 164.627 111.168 165.57 104.876C166.502 98.5843 167.56 92.3499 168.758 86.1676C169.95 79.9906 171.07 74.4593 172.112 69.5843C173.164 64.7093 174.039 61.1416 174.737 58.876C175.289 57.501 175.841 56.3343 176.383 55.376C176.935 54.4072 177.95 53.7458 179.424 53.3968C181.643 52.8551 183.612 53.1364 185.32 54.2301C187.028 55.3291 187.596 56.3343 187.028 57.251Z" fill="black"/>
<path d="M209.268 109.673C211.169 109.23 212.899 108.1 214.456 106.277C216.024 104.459 217.378 102.464 218.518 100.298C219.669 98.1311 220.612 96.2353 221.352 94.6103C222.336 92.7249 223.211 90.8186 223.977 88.902C224.753 86.9853 225.508 85.0478 226.248 83.0895C227.3 82.8395 228.133 83.2509 228.748 84.3186C227.399 87.5582 225.977 91.0478 224.477 94.7978C222.987 98.5478 221.289 102.126 219.373 105.527C217.456 108.918 215.107 111.787 212.331 114.131C211.748 114.506 211.19 114.871 210.664 115.214C210.133 115.563 209.56 115.808 208.935 115.944C208.518 116.058 208.128 116.069 207.768 115.985C207.404 115.902 207.065 115.85 206.748 115.819L206.248 115.944C204.94 115.584 203.341 114.626 201.456 113.069C199.581 111.501 197.8 109.751 196.123 107.819C194.44 105.892 193.123 104.319 192.164 103.11C191.565 104.808 190.893 106.996 190.143 109.673C189.404 112.355 188.706 114.996 188.039 117.589C187.383 120.188 186.893 122.423 186.56 124.298C186.112 125.746 185.581 126.543 184.956 126.694C184.425 126.819 183.685 126.714 182.727 126.381C180.727 125.522 179.555 124.355 179.206 122.881C178.862 121.412 178.623 119.746 178.498 117.881C178.373 113.563 178.737 108.298 179.581 102.089C180.43 95.8811 181.571 89.3811 182.998 82.5895C184.425 75.7978 185.982 69.277 187.664 63.027C189.357 56.777 190.946 51.4176 192.435 46.9436C192.821 45.402 193.274 44.1832 193.789 43.277C194.3 42.3759 195.352 41.7353 196.935 41.3603C199.253 40.8082 201.274 41.1311 202.998 42.3395C204.732 43.5374 205.268 44.6051 204.602 45.5478C203.544 47.1311 202.31 49.7665 200.893 53.4436C199.487 57.1259 198.029 61.4801 196.518 66.5061C195.003 71.5374 193.55 76.8603 192.164 82.4853C190.774 88.1103 189.539 93.6676 188.456 99.152C187.373 104.642 186.602 109.662 186.143 114.214C188.393 106.881 190.581 99.9957 192.706 93.5478C194.831 87.0895 197.8 80.454 201.623 73.6311C202.274 72.579 203.154 71.1415 204.268 69.3186C205.393 67.4853 206.602 66.4801 207.893 66.2978C208.737 66.0895 209.8 66.2249 211.081 66.6936C212.357 67.1676 213.237 67.9593 213.727 69.0686C214.419 71.0165 214.56 73.5686 214.143 76.7353C213.727 79.8915 212.815 83.0843 211.414 86.3186C210.024 89.5426 208.206 92.3707 205.956 94.7978C203.706 97.2145 201.149 98.7665 198.289 99.4436C199.258 100.683 200.393 102.147 201.685 103.839C202.987 105.522 204.3 106.933 205.623 108.069C206.956 109.194 208.169 109.73 209.268 109.673ZM207.331 71.5895C206.789 72.0634 205.919 73.4436 204.727 75.7353C203.544 78.0165 202.294 80.5895 200.977 83.4645C199.669 86.3395 198.518 88.9593 197.518 91.3186C196.529 93.6676 195.883 95.152 195.581 95.777L195.873 96.3603L196.373 96.2561C197.841 95.8968 199.294 94.6624 200.727 92.5478C202.154 90.4228 203.456 87.9436 204.623 85.1103C205.789 82.2665 206.623 79.5843 207.123 77.0686C207.633 74.5582 207.706 72.7301 207.331 71.5895Z" fill="black"/>
<path d="M250.161 99.245C250.546 99.4845 250.9 99.5679 251.223 99.495C252.056 99.2866 253.025 98.3595 254.14 96.7033C255.249 95.0366 256.411 93.0106 257.619 90.62C258.827 88.2189 259.973 85.8023 261.056 83.37C262.14 80.9429 263.025 78.8648 263.723 77.1408C264.431 75.422 264.812 74.4325 264.869 74.1825C265.494 74.0314 265.978 73.995 266.327 74.0783C266.687 74.1616 267.082 74.5991 267.515 75.3908C267.025 76.7241 266.192 78.9845 265.015 82.1616C263.832 85.3439 262.416 88.7189 260.765 92.2866C259.109 95.8439 257.275 99.0054 255.265 101.766C253.249 104.516 251.192 106.141 249.098 106.641C247.817 106.948 246.525 106.714 245.223 105.932C243.317 104.823 242.056 103.094 241.431 100.745C240.817 98.3856 240.411 96.12 240.202 93.9533C240.244 93.5939 240.223 93.2606 240.14 92.9533C239.166 95.8595 238.129 98.8595 237.036 101.953C235.937 105.052 234.817 107.823 233.681 110.266C232.541 112.698 231.312 114.412 229.994 115.412C229.879 115.443 229.754 115.505 229.619 115.599C229.478 115.682 229.296 115.755 229.077 115.807C228.661 115.906 228.249 115.922 227.848 115.849C227.442 115.781 226.957 115.703 226.39 115.62C223.582 115.052 221.676 113.365 220.661 110.557C219.65 107.74 219.265 104.302 219.515 100.245C219.765 96.1773 220.463 91.9741 221.598 87.6408C222.723 83.3075 224.062 79.2866 225.619 75.5783C227.187 71.8595 228.728 68.9741 230.244 66.9325C231.994 64.5158 233.713 63.1095 235.411 62.7033C236.244 62.495 237.041 62.5054 237.806 62.7241C238.582 62.9325 239.249 63.245 239.806 63.6616C242.056 65.1356 243.411 67.0731 243.869 69.4741C244.327 71.8648 244.52 74.2814 244.452 76.7241C245.213 76.2241 245.859 75.9116 246.39 75.7866C248.166 75.3595 250.015 75.8491 251.931 77.2658C252.567 77.6825 252.911 77.995 252.952 78.2033C253.004 78.4116 252.77 78.8023 252.244 79.37C250.978 81.0262 250.187 83.3908 249.869 86.4741C249.546 89.547 249.452 92.0731 249.577 94.0575C249.421 96.6408 249.619 98.37 250.161 99.245ZM237.265 73.9533C236.082 76.0106 234.921 78.8491 233.786 82.4741C232.645 86.0887 231.666 89.797 230.848 93.5991C230.041 97.4064 229.52 100.677 229.286 103.412C229.046 106.136 229.254 107.698 229.911 108.099C230.744 107.891 231.723 106.427 232.848 103.703C233.984 100.985 235.249 97.7606 236.64 94.0366C238.025 90.3179 239.359 86.9064 240.64 83.8075C240.859 82.8804 241.088 81.995 241.327 81.1616C241.577 80.3179 242.004 79.547 242.619 78.8491C242.004 73.547 241.077 71.047 239.827 71.3491C239.411 71.4481 239.004 71.7398 238.619 72.2241C238.228 72.6981 237.775 73.2762 237.265 73.9533Z" fill="black"/>
<path d="M293.236 55.3862C294.887 56.2091 295.538 57.7768 295.195 60.0946L295.174 60.5946C295.033 61.4175 294.658 63.1258 294.049 65.7196C293.434 68.3029 292.851 71.2196 292.299 74.4696C291.757 77.7196 291.309 80.8341 290.965 83.8029C290.616 86.7768 290.616 89.1154 290.965 90.8237C291.309 92.5216 292.153 93.1466 293.486 92.6987C295.528 91.881 297.382 90.1935 299.049 87.6362C300.715 85.0685 302.241 82.2821 303.632 79.2821C305.033 76.2716 306.215 73.7508 307.174 71.7196L307.299 71.5529L307.486 70.9904C308.247 69.0477 308.965 67.381 309.632 65.9904C310.299 64.5893 310.658 63.7768 310.715 63.5529C310.715 63.5529 310.736 63.5216 310.778 63.4487C310.83 63.381 310.913 63.3393 311.028 63.3237C311.747 63.1466 312.408 63.5946 313.007 64.6779C312.892 65.1518 312.695 65.7091 312.403 66.3446C312.111 66.9696 311.83 67.6935 311.57 68.5112C310.83 70.4852 309.736 73.0893 308.278 76.3237C306.82 79.5633 305.153 82.855 303.278 86.1987C301.413 89.5321 299.387 92.4383 297.195 94.9071C295.012 97.381 292.82 98.881 290.611 99.4071C290.08 99.5321 289.642 99.5841 289.299 99.5529C286.976 99.6675 285.278 98.855 284.195 97.1154C283.111 95.3654 282.413 93.1675 282.111 90.5112C281.804 87.8602 281.788 85.0268 282.07 82.0112C282.346 79.0008 282.741 76.2352 283.257 73.7196C283.767 71.2091 284.205 69.2925 284.57 67.9696C281.58 74.1362 278.715 80.3029 275.965 86.4696C273.226 92.6362 270.679 98.9487 268.32 105.407C267.971 106.714 267.429 107.459 266.695 107.636C266.486 107.694 266.174 107.657 265.757 107.532C265.34 107.407 264.908 107.345 264.465 107.345C261.851 106.735 260.127 105.699 259.278 104.24C258.418 102.772 258.08 100.735 258.257 98.1362C258.648 94.6935 259.017 91.8237 259.361 89.5321C259.695 87.23 260.085 85.131 260.528 83.2404C260.976 81.3393 261.502 79.2352 262.111 76.9279C262.721 74.6258 263.408 71.8185 264.174 68.5112C264.424 67.2352 264.825 66.3602 265.382 65.8862C265.934 65.4175 266.788 65.0425 267.945 64.7612C270.054 64.2612 272.028 64.5685 273.861 65.6779L274.236 65.9487C275.038 66.5216 275.424 67.0633 275.382 67.5737C275.34 68.0893 275.158 68.8341 274.84 69.8029C274.283 72.1675 273.804 74.0321 273.403 75.4071C273.012 76.7821 272.658 77.9487 272.34 78.9071C272.017 79.8654 271.684 81.0268 271.34 82.3862C270.991 83.7508 270.491 85.6258 269.84 88.0112C269.549 89.5425 269.158 91.0529 268.674 92.5529C268.2 94.0529 267.715 95.6519 267.215 97.3446C267.559 96.4696 268.366 94.4904 269.632 91.4071C270.908 88.3133 272.455 84.7716 274.278 80.7821C276.111 76.7977 277.913 72.8393 279.695 68.9071C281.486 64.9643 283.054 61.631 284.403 58.9071C285.762 56.1883 286.642 54.73 287.049 54.5321C289.351 53.98 291.413 54.2612 293.236 55.3862Z" fill="black"/>
<path d="M300.061 92.9671C299.3 91.5921 299.123 90.8577 299.54 90.7588C299.764 90.7067 299.998 90.7588 300.248 90.9254C300.571 91.3004 301.452 91.4879 302.894 91.4879C304.327 91.4775 305.889 91.2692 307.582 90.8629C309.79 90.3213 311.821 89.415 313.686 88.1338C315.545 86.8577 316.3 85.0296 315.957 82.6546C315.899 81.4463 315.248 79.9984 313.998 78.3004C312.748 76.5921 311.394 74.6911 309.936 72.5921C308.488 70.4827 307.3 68.1754 306.373 65.6754C305.457 63.165 305.248 60.3786 305.748 57.3213C306.238 54.2536 307.79 51.0088 310.415 47.5921C311.316 46.2744 312.274 45.2952 313.29 44.6546C314.3 44.0192 315.337 43.5713 316.394 43.3213C318.613 42.7952 320.53 43.0088 322.144 43.9671C323.754 44.915 324.295 45.6702 323.769 46.2379C321.103 48.5452 318.629 51.2275 316.353 54.2796C314.071 57.3213 312.728 60.54 312.311 63.9254C311.894 67.3161 313.03 70.6859 315.728 74.0296C317.405 75.8629 318.967 77.9411 320.415 80.2588C321.858 82.5817 322.483 84.9879 322.29 87.4879C322.217 89.5192 321.103 91.4619 318.936 93.3213C316.769 95.1702 314.316 96.4202 311.582 97.0713C309.358 97.6025 307.212 97.5869 305.144 97.0296C303.061 96.4775 301.368 95.1234 300.061 92.9671Z" fill="black"/>
<path d="M354.83 74.8455C356.731 74.4028 358.46 73.2726 360.017 71.4497C361.585 69.632 362.939 67.6372 364.08 65.4705C365.231 63.3039 366.174 61.408 366.913 59.783C367.898 57.8976 368.773 55.9914 369.538 54.0747C370.314 52.158 371.07 50.2205 371.809 48.2622C372.861 48.0122 373.695 48.4236 374.309 49.4914C372.96 52.7309 371.538 56.2205 370.038 59.9705C368.549 63.7205 366.851 67.2986 364.934 70.6997C363.017 74.0903 360.668 76.9601 357.892 79.3039C357.309 79.6789 356.752 80.0434 356.226 80.3872C355.695 80.7361 355.122 80.9809 354.497 81.1164C354.08 81.2309 353.689 81.2414 353.33 81.158C352.965 81.0747 352.627 81.0226 352.309 80.9914L351.809 81.1164C350.502 80.757 348.903 79.7986 347.017 78.2414C345.142 76.6736 343.361 74.9236 341.684 72.9914C340.002 71.0643 338.684 69.4914 337.726 68.283C337.127 69.9809 336.455 72.1684 335.705 74.8455C334.965 77.5278 334.267 80.1684 333.601 82.7622C332.945 85.3611 332.455 87.5955 332.122 89.4705C331.674 90.9184 331.142 91.7153 330.517 91.8664C329.986 91.9914 329.247 91.8872 328.288 91.5539C326.288 90.6945 325.116 89.5278 324.767 88.0539C324.424 86.5851 324.184 84.9184 324.059 83.0539C323.934 78.7361 324.299 73.4705 325.142 67.2622C325.991 61.0539 327.132 54.5539 328.559 47.7622C329.986 40.9705 331.543 34.4497 333.226 28.1997C334.918 21.9497 336.507 16.5903 337.997 12.1164C338.382 10.5747 338.835 9.35594 339.351 8.44969C339.861 7.54865 340.913 6.90802 342.497 6.53302C344.814 5.98094 346.835 6.30386 348.559 7.51219C350.293 8.7101 350.83 9.77781 350.163 10.7205C349.106 12.3039 347.872 14.9393 346.455 18.6164C345.049 22.2986 343.59 26.6528 342.08 31.6789C340.564 36.7101 339.111 42.033 337.726 47.658C336.335 53.283 335.101 58.8403 334.017 64.3247C332.934 69.8143 332.163 74.8351 331.705 79.3872C333.955 72.0539 336.142 65.1684 338.267 58.7205C340.392 52.2622 343.361 45.6268 347.184 38.8039C347.835 37.7518 348.715 36.3143 349.83 34.4914C350.955 32.658 352.163 31.6528 353.455 31.4705C354.299 31.2622 355.361 31.3976 356.642 31.8664C357.918 32.3403 358.799 33.132 359.288 34.2414C359.981 36.1893 360.122 38.7414 359.705 41.908C359.288 45.0643 358.377 48.257 356.976 51.4914C355.585 54.7153 353.767 57.5434 351.517 59.9705C349.267 62.3872 346.71 63.9393 343.851 64.6164C344.82 65.8559 345.955 67.3195 347.247 69.0122C348.549 70.6945 349.861 72.1059 351.184 73.2414C352.517 74.3664 353.731 74.9028 354.83 74.8455ZM352.892 36.7622C352.351 37.2361 351.481 38.6164 350.288 40.908C349.106 43.1893 347.856 45.7622 346.538 48.6372C345.231 51.5122 344.08 54.132 343.08 56.4914C342.09 58.8403 341.445 60.3247 341.142 60.9497L341.434 61.533L341.934 61.4289C343.403 61.0695 344.856 59.8351 346.288 57.7205C347.715 55.5955 349.017 53.1164 350.184 50.283C351.351 47.4393 352.184 44.757 352.684 42.2414C353.195 39.7309 353.267 37.9028 352.892 36.7622Z" fill="black"/>
<path d="M382.743 3.25101C383.909 2.97496 385.107 3.10517 386.347 3.64684C387.597 4.17809 388.493 4.87601 389.034 5.75101C389.336 6.11559 389.409 6.53746 389.243 7.02184C389.086 7.51142 388.94 7.93851 388.805 8.31351C387.289 12.1364 385.815 15.9698 384.388 19.8135C382.972 23.6625 381.503 27.5427 379.993 31.4593C379.727 32.1833 379.539 32.5583 379.43 32.5843C379.232 32.626 378.909 32.2041 378.451 31.3135C377.659 28.9385 377.347 26.1208 377.513 22.8552C377.68 19.5948 378.123 16.3448 378.847 13.1052C379.581 9.8708 380.399 7.14684 381.305 4.93851C381.847 3.91246 382.326 3.34996 382.743 3.25101ZM392.534 44.1468C393.284 43.9698 393.951 44.4125 394.534 45.4802C394.045 46.7198 393.539 47.9906 393.013 49.2927C392.498 50.5843 392.06 51.876 391.701 53.1677C391.06 54.6677 390.097 56.8031 388.805 59.5635C387.513 62.3135 386.019 65.1677 384.326 68.126C382.644 71.0843 380.899 73.6781 379.097 75.8968C377.289 78.1208 375.602 79.4177 374.034 79.7927C371.81 80.3239 369.664 79.6364 367.597 77.7302C365.529 75.8291 364.696 73.3864 365.097 70.3968C365.253 69.5791 365.529 67.9281 365.93 65.4385C366.336 62.9541 366.847 60.1052 367.472 56.8968C368.097 53.6885 368.732 50.5635 369.388 47.5218C370.055 44.4698 370.727 41.9125 371.409 39.8552C372.086 37.8031 372.685 36.7093 373.201 36.5843C373.42 36.5323 373.727 36.5166 374.118 36.5427C374.503 36.5583 374.935 36.6156 375.409 36.7093C376.685 36.9593 378.019 37.4281 379.409 38.1052C380.795 38.7718 381.253 39.9958 380.784 41.7718L380.701 42.126C379.493 45.4333 378.352 48.9385 377.284 52.6468C376.227 56.3448 375.284 59.9541 374.451 63.4802C374.368 63.9698 374.128 65.1677 373.743 67.0843C373.368 69.001 373.144 70.8656 373.076 72.6677C373.003 74.4593 373.336 75.4958 374.076 75.7718C374.185 75.8552 374.295 75.8864 374.409 75.8552C374.826 75.7614 375.493 75.2666 376.409 74.376C379.92 69.975 382.894 65.1989 385.326 60.0427C387.769 54.8916 390.097 49.7198 392.305 44.5218C392.347 44.2875 392.394 44.1677 392.451 44.1677C392.503 44.1573 392.534 44.1468 392.534 44.1468Z" fill="black"/>
<mask id="mask0_84_158" style="mask-type:luminance" maskUnits="userSpaceOnUse" x="0" y="0" width="95" height="85">
<path d="M0 0H94.6667V84.9375H0V0Z" fill="white"/>
</mask>
<g mask="url(#mask0_84_158)">
<path fill-rule="evenodd" clip-rule="evenodd" d="M15.0728 67.4271L28.1197 84.5312C28.1197 84.5312 40.0051 58.2813 68.3957 49.25C68.3957 49.25 43.0207 54.3854 27.4009 74.4844L21.8853 67.2917L19.8697 64.7135L21.9061 61.4948C16.9686 61.2135 12.0155 61.3958 8.28112 56.2188C4.54154 51.0469 9.53633 37 20.0884 33.5677C20.5467 33.4062 21.0259 33.2865 21.4842 33.1667C20.927 37.8021 20.2863 43.8542 20.0467 44.474C24.9634 32.5469 46.0207 -11.1458 60.2655 20.1771C60.2655 20.1771 60.5259 19.0417 60.7447 17.3021C74.7707 8.23438 78.427 18.901 78.604 28.1719C53.6717 25.8125 36.0884 51.1667 33.6718 54.8646L33.6509 54.8802L33.5936 54.9635C33.453 55.1823 33.3749 55.3021 33.3749 55.3021L34.8697 53.8646C51.2134 38.401 67.5155 35.6406 74.5311 35.2031L82.8801 46.9531C82.8801 46.9531 48.2395 55.0833 35.2499 84.3333C35.2499 84.3333 58.7082 56.2031 94.1509 52.2656L82.8801 33.6458C88.8749 8.13021 71.6509 3.63542 61.6822 8.45312C61.2447 8.65104 60.8645 8.77083 60.5624 8.84896C59.6457 4.25521 56.927 0.0208333 50.0936 0C48.979 0 47.7603 0.098959 46.4009 0.338542C30.0155 3.25521 24.8645 19.3385 22.2238 27.9323C22.203 27.9896 22.1874 28.0885 22.1665 28.1927C21.4061 28.2917 20.8072 28.3906 20.4842 28.4323C18.7863 28.651 17.1092 29.0312 15.4322 29.5677C2.66654 33.724 -1.84908 48.4896 1.16654 56.9792C3.80196 64.4323 8.67696 66.0521 15.0311 67.4115L15.0728 67.4271Z" fill="#BA3B46"/>
</g>
<path d="M153.119 169.493C153.52 167.509 153.879 165.556 154.202 163.639C154.535 161.722 154.473 159.821 154.015 157.931C153.733 156.764 153.067 155.389 152.015 153.806C150.973 152.222 149.556 151.649 147.765 152.076C145.874 152.535 143.874 153.826 141.765 155.951C139.666 158.066 137.629 160.576 135.66 163.493C133.686 166.41 131.848 169.41 130.14 172.493C128.431 175.576 126.963 178.405 125.744 180.972C124.52 183.545 123.619 185.509 123.035 186.868C121.395 190.717 119.806 195.113 118.265 200.056C116.723 204.988 115.629 209.946 114.994 214.931C114.353 219.92 114.535 224.514 115.535 228.722C115.811 229.879 116.327 231.342 117.077 233.118C117.838 234.884 118.921 236.379 120.327 237.597C121.728 238.821 123.431 239.196 125.431 238.722C127.749 238.17 130.108 236.655 132.515 234.181C134.931 231.712 137.249 228.733 139.473 225.243C141.707 221.759 143.749 218.191 145.598 214.535C147.442 210.868 148.957 207.446 150.14 204.264C151.332 201.087 152.119 198.613 152.494 196.847C149.671 198.087 146.463 199.691 142.869 201.66C139.27 203.634 135.838 205.712 132.577 207.889C129.327 210.071 126.713 212.175 124.744 214.201C124.494 214.576 124.27 214.821 124.077 214.931C123.879 215.03 123.728 215.092 123.619 215.118C122.895 215.3 122.348 215.071 121.973 214.431C121.598 213.795 121.348 213.217 121.223 212.701C121.14 212.368 121.098 211.983 121.098 211.535C121.098 211.092 121.27 210.66 121.619 210.243C121.952 209.717 122.561 209.024 123.452 208.16C126.379 205.451 129.916 202.634 134.056 199.701C138.192 196.759 142.483 194.113 146.931 191.764C151.374 189.42 155.379 187.816 158.952 186.951C159.16 186.91 159.66 186.795 160.452 186.597C161.244 186.405 161.707 186.358 161.848 186.451C162.608 186.368 163.332 186.837 164.015 187.847C164.692 188.847 165.098 189.613 165.223 190.139C165.416 190.972 164.978 191.691 163.91 192.285C162.879 192.634 161.77 193.009 160.577 193.41C159.395 193.816 158.249 194.254 157.14 194.722C157.39 197.129 157.098 200.212 156.265 203.972C155.431 207.722 154.15 211.696 152.431 215.889C150.723 220.087 148.598 224.097 146.056 227.931C143.515 231.764 140.66 235.092 137.494 237.91C134.338 240.717 130.973 242.545 127.39 243.41C123.499 244.337 120.124 244.17 117.265 242.91C114.4 241.66 112.067 239.837 110.265 237.431C108.473 235.014 107.296 232.597 106.723 230.181C105.864 226.597 105.692 222.16 106.202 216.868C106.718 211.576 107.775 205.905 109.39 199.847C110.999 193.78 113.025 187.722 115.473 181.681C117.916 175.629 120.723 170.03 123.89 164.889C127.056 159.738 130.416 155.425 133.973 151.951C137.525 148.483 141.207 146.295 145.015 145.389C147.525 144.78 149.65 144.967 151.39 145.951C153.14 146.925 154.504 148.212 155.494 149.806C156.478 151.405 157.15 152.941 157.515 154.41C157.666 155.05 157.812 156.243 157.952 157.993C158.088 159.733 158.124 161.613 158.056 163.639C157.983 165.655 157.744 167.441 157.327 168.993C156.921 170.55 156.296 171.425 155.452 171.618C154.921 171.743 154.431 171.67 153.973 171.389C153.525 171.097 153.249 170.743 153.14 170.326C153.098 170.108 153.088 169.941 153.119 169.826C153.145 169.717 153.145 169.608 153.119 169.493Z" fill="black"/>
<path d="M170.873 224.847C170.456 224.962 170.039 224.972 169.623 224.889C169.206 224.805 168.774 224.774 168.331 224.785C166.107 224.316 164.555 222.795 163.664 220.222C162.763 217.654 162.425 214.488 162.643 210.722C162.852 206.946 163.362 203.008 164.164 198.91C164.956 194.816 165.92 190.962 167.06 187.347C168.196 183.738 169.289 180.863 170.331 178.722C170.883 177.279 171.841 176.389 173.206 176.055C174.466 175.753 175.753 176.003 177.06 176.805C178.362 177.597 179.274 178.654 179.789 179.972C179.248 180.878 178.482 182.649 177.498 185.285C176.508 187.925 175.539 190.967 174.581 194.41C173.633 197.857 172.815 201.279 172.123 204.68C171.425 208.071 171.024 210.92 170.914 213.222C170.8 215.529 171.123 216.878 171.873 217.264C172.399 217.139 173.154 216.238 174.143 214.555C175.143 212.863 176.237 210.701 177.435 208.076C178.643 205.451 179.852 202.717 181.06 199.868C182.268 197.024 183.362 194.42 184.352 192.055C184.56 191.014 184.862 189.722 185.268 188.18C185.685 186.639 186.289 185.217 187.081 183.91C187.883 182.592 188.873 181.795 190.039 181.514C191.399 181.196 192.873 181.212 194.456 181.555C196.039 181.904 196.602 182.743 196.143 184.076C195.946 184.675 195.607 186.066 195.123 188.243C194.649 190.41 194.196 192.8 193.768 195.41C193.336 198.024 193.086 200.337 193.018 202.347C193.112 205.097 193.399 206.758 193.873 207.326C194.149 207.576 194.446 207.67 194.768 207.597C195.602 207.389 196.571 206.462 197.685 204.805C198.795 203.154 199.956 201.154 201.164 198.805C202.383 196.462 203.518 194.107 204.56 191.743C205.612 189.383 206.487 187.342 207.185 185.618C207.893 183.883 208.279 182.899 208.352 182.66C208.352 182.66 208.362 182.628 208.393 182.555C208.435 182.488 208.503 182.441 208.602 182.41C209.461 182.201 210.196 182.701 210.81 183.91C210.31 185.149 209.466 187.357 208.289 190.535C207.107 193.701 205.711 197.035 204.102 200.535C202.487 204.035 200.706 207.16 198.748 209.91C196.789 212.66 194.758 214.285 192.664 214.785C191.607 215.05 190.315 214.8 188.789 214.035C187.065 212.899 185.873 211.16 185.206 208.826C184.539 206.482 184.123 204.264 183.956 202.18L183.893 201.18C183.602 202.253 182.956 203.993 181.956 206.41C180.966 208.816 179.831 211.399 178.539 214.16C177.258 216.91 175.946 219.316 174.602 221.368C173.268 223.41 172.024 224.571 170.873 224.847Z" fill="black"/>
<path d="M221.763 161.42C224.315 162.269 226.122 163.763 227.179 165.899C228.247 168.024 228.851 170.326 228.992 172.795C229.143 175.269 229.039 177.607 228.679 179.815C228.523 181.513 228.101 183.805 227.409 186.69C226.711 189.581 225.971 192.763 225.179 196.232C224.398 199.706 223.679 203.081 223.013 206.357C222.346 209.623 221.976 212.498 221.909 214.982C222.877 214.847 224.039 213.67 225.388 211.461C226.747 209.253 228.221 206.456 229.804 203.065C231.388 199.68 232.914 196.17 234.388 192.545C235.856 188.909 237.127 185.623 238.2 182.69C239.284 179.763 240.08 177.732 240.596 176.607C241.039 176.18 241.315 175.951 241.429 175.92C241.523 175.894 241.815 175.93 242.304 176.024C243.247 176.248 243.58 176.727 243.304 177.461C243.039 178.201 242.419 179.914 241.45 182.607C240.476 185.289 239.294 188.493 237.909 192.211C236.518 195.92 234.992 199.67 233.325 203.461C231.669 207.243 230.013 210.644 228.346 213.67C226.679 216.685 225.106 218.815 223.638 220.065C223.44 220.216 223.242 220.341 223.034 220.44C222.836 220.534 222.638 220.612 222.429 220.67C220.106 221.222 218.205 220.482 216.721 218.44C215.231 216.399 214.284 214.493 213.867 212.711C213.169 210.326 213.096 207.368 213.638 203.836C214.19 200.31 214.976 196.586 215.992 192.67C217.002 188.753 217.981 184.961 218.929 181.295C219.888 177.618 220.497 174.352 220.763 171.503C221.023 168.659 220.622 166.638 219.554 165.44C219.414 165.263 219.2 165.045 218.909 164.795C218.617 164.534 218.33 164.253 218.054 163.961C215.856 169.727 214.19 174.664 213.054 178.774C211.929 182.873 210.752 186.305 209.534 189.065C208.909 189.774 208.388 190.18 207.971 190.274C207.44 190.399 207.034 190.19 206.742 189.649C206.45 189.097 206.336 188.748 206.409 188.607C207.185 186.763 208.023 184.347 208.929 181.357C209.83 178.357 210.784 175.128 211.784 171.67C212.794 168.201 213.763 164.899 214.679 161.774C212.205 160.248 210.565 158.388 209.763 156.19C208.955 153.982 208.784 151.748 209.242 149.482C209.7 147.206 210.523 145.201 211.721 143.461C212.929 141.727 214.351 140.602 215.992 140.086C217.242 139.685 218.325 140.019 219.242 141.086C220.159 142.144 220.877 143.414 221.409 144.899C221.935 146.388 222.148 147.644 222.054 148.67C221.638 151.977 220.763 155.748 219.429 159.982C219.804 160.206 220.211 160.435 220.659 160.67C221.117 160.894 221.481 161.144 221.763 161.42ZM217.117 146.836C216.7 146.935 216.19 147.618 215.596 148.878C215.013 150.128 214.705 151.539 214.679 153.107C214.664 154.664 215.289 155.961 216.554 157.003C216.888 156.019 217.185 154.94 217.45 153.774C217.711 152.597 217.877 151.44 217.95 150.315C218.226 147.789 217.95 146.628 217.117 146.836Z" fill="black"/>
<path d="M283.346 189.93C283.304 191.613 283.544 192.389 284.075 192.264C284.908 192.055 286.012 191.008 287.387 189.118C288.773 187.232 290.2 185.024 291.658 182.493C293.116 179.967 294.398 177.654 295.512 175.555C296.622 173.462 297.314 172.05 297.596 171.326C298.731 168.717 299.726 166.389 300.575 164.347C301.434 162.305 301.908 161.217 301.991 161.076C302.033 160.842 302.163 160.701 302.387 160.659C303.012 160.508 303.622 160.967 304.221 162.034C303.314 164.368 302.137 167.383 300.679 171.076C299.231 174.758 297.517 178.508 295.533 182.326C293.559 186.149 291.455 189.441 289.221 192.201C286.997 194.951 284.726 196.607 282.408 197.159C281.991 197.258 281.538 197.253 281.054 197.139C280.58 197.029 280.059 196.93 279.491 196.847C278.017 196.305 277.017 195.264 276.491 193.722C275.96 192.18 275.663 190.805 275.596 189.597C275.564 185.821 275.783 182.097 276.241 178.43C276.7 174.764 277.221 171.133 277.804 167.534C278.08 166.8 278.116 166.462 277.908 166.514C277.908 166.514 277.898 166.607 277.887 166.784C277.872 166.951 277.783 167.159 277.616 167.409C275.658 171.774 273.726 176.133 271.825 180.493C269.919 184.842 268.059 189.295 266.241 193.847C266.2 194.071 266.096 194.316 265.929 194.576C265.773 194.842 265.439 195.092 264.929 195.326C264.064 195.425 263.116 195.154 262.075 194.514C261.044 193.863 260.33 193.196 259.929 192.514C259.096 191.378 258.585 190.107 258.408 188.701C258.241 187.3 258.184 185.982 258.241 184.743C258.544 181.342 259.033 177.92 259.7 174.472C260.377 171.014 261.226 167.446 262.241 163.764C259.116 170.295 256.127 177.014 253.283 183.93C250.434 190.837 247.726 197.774 245.158 204.743C244.934 205.232 244.684 205.951 244.408 206.909C244.142 207.857 243.747 208.389 243.221 208.514C242.398 208.821 241.241 208.764 239.741 208.347C238.257 207.93 237.179 207.472 236.512 206.972C235.387 206.014 234.731 204.868 234.533 203.534C234.325 202.191 234.278 200.826 234.387 199.451C234.804 196.024 235.179 193.154 235.512 190.847C235.835 188.545 236.153 186.441 236.471 184.534C236.794 182.618 237.215 180.545 237.741 178.305C238.257 176.071 238.835 173.258 239.491 169.868C239.767 168.691 240.205 167.863 240.804 167.389C241.413 166.904 242.247 166.534 243.304 166.284C245.622 165.732 247.642 166.029 249.366 167.18L249.7 167.243C250.392 167.857 250.721 168.42 250.679 168.93C250.648 169.446 250.523 170.175 250.304 171.118L243.179 198.514C243.523 197.654 244.221 195.93 245.262 193.347C246.314 190.764 247.601 187.649 249.116 183.993C250.642 180.342 252.221 176.571 253.846 172.68C255.471 168.795 257.038 165.139 258.554 161.722C260.08 158.295 261.398 155.441 262.512 153.159C263.637 150.883 264.351 149.67 264.658 149.514C264.741 149.378 264.991 149.258 265.408 149.159C266.252 148.951 267.231 148.967 268.346 149.201C269.455 149.441 270.335 149.753 270.991 150.139C272.544 151.097 273.169 152.784 272.866 155.201L272.783 155.555C271.783 160.253 270.684 164.883 269.491 169.451C268.309 174.008 267.288 178.675 266.429 183.451C266.429 183.899 266.419 184.201 266.408 184.368C266.392 184.534 266.387 184.618 266.387 184.618C266.481 184.592 266.554 184.441 266.596 184.159C266.648 183.868 266.752 183.592 266.908 183.326C267.476 181.982 268.288 179.925 269.346 177.159C270.413 174.383 271.622 171.503 272.971 168.514C274.314 165.529 275.679 162.868 277.054 160.534C278.439 158.201 279.731 156.722 280.929 156.097C281.012 155.972 281.205 155.878 281.512 155.805C282.346 155.597 283.398 155.592 284.679 155.784C285.971 155.982 287.075 156.389 287.991 157.014C288.919 157.628 289.205 158.587 288.846 159.889C287.564 164.764 286.419 169.633 285.408 174.493C284.408 179.342 283.679 184.326 283.221 189.451L283.346 189.93Z" fill="black"/>
<path d="M326.08 176.026C326.465 176.266 326.82 176.349 327.143 176.276C327.976 176.068 328.945 175.141 330.059 173.484C331.169 171.818 332.33 169.792 333.538 167.401C334.747 165 335.893 162.583 336.976 160.151C338.059 157.724 338.945 155.646 339.643 153.922C340.351 152.203 340.731 151.214 340.788 150.964C341.413 150.813 341.898 150.776 342.247 150.859C342.606 150.943 343.002 151.38 343.434 152.172C342.945 153.505 342.111 155.766 340.934 158.943C339.752 162.125 338.335 165.5 336.684 169.068C335.028 172.625 333.195 175.787 331.184 178.547C329.169 181.297 327.111 182.922 325.018 183.422C323.736 183.729 322.445 183.495 321.143 182.714C319.236 181.604 317.976 179.875 317.351 177.526C316.736 175.167 316.33 172.901 316.122 170.734C316.163 170.375 316.143 170.042 316.059 169.734C315.085 172.641 314.049 175.641 312.955 178.734C311.856 181.833 310.736 184.604 309.601 187.047C308.46 189.479 307.231 191.193 305.913 192.193C305.799 192.224 305.674 192.287 305.538 192.38C305.398 192.464 305.215 192.537 304.997 192.589C304.58 192.688 304.169 192.703 303.768 192.63C303.361 192.563 302.877 192.484 302.309 192.401C299.502 191.833 297.596 190.146 296.58 187.339C295.57 184.521 295.184 181.083 295.434 177.026C295.684 172.958 296.382 168.755 297.518 164.422C298.643 160.089 299.981 156.068 301.538 152.359C303.106 148.641 304.648 145.755 306.163 143.714C307.913 141.297 309.632 139.891 311.33 139.484C312.163 139.276 312.96 139.287 313.726 139.505C314.502 139.714 315.169 140.026 315.726 140.443C317.976 141.917 319.33 143.854 319.788 146.255C320.247 148.646 320.439 151.063 320.372 153.505C321.132 153.005 321.778 152.693 322.309 152.568C324.085 152.141 325.934 152.63 327.851 154.047C328.486 154.464 328.83 154.776 328.872 154.984C328.924 155.193 328.689 155.583 328.163 156.151C326.898 157.807 326.106 160.172 325.788 163.255C325.465 166.328 325.372 168.854 325.497 170.839C325.34 173.422 325.538 175.151 326.08 176.026ZM313.184 150.734C312.002 152.792 310.84 155.63 309.705 159.255C308.564 162.87 307.585 166.578 306.768 170.38C305.96 174.188 305.439 177.458 305.205 180.193C304.965 182.917 305.174 184.479 305.83 184.88C306.663 184.672 307.643 183.208 308.768 180.484C309.903 177.766 311.169 174.542 312.559 170.818C313.945 167.099 315.278 163.688 316.559 160.589C316.778 159.662 317.007 158.776 317.247 157.943C317.497 157.099 317.924 156.328 318.538 155.63C317.924 150.328 316.997 147.828 315.747 148.13C315.33 148.229 314.924 148.521 314.538 149.005C314.148 149.479 313.695 150.057 313.184 150.734Z" fill="black"/>
<path d="M369.154 132.168C370.805 132.991 371.456 134.558 371.112 136.876L371.091 137.376C370.951 138.199 370.576 139.907 369.966 142.501C369.352 145.085 368.768 148.001 368.216 151.251C367.674 154.501 367.227 157.616 366.883 160.585C366.534 163.558 366.534 165.897 366.883 167.605C367.227 169.303 368.07 169.928 369.404 169.48C371.445 168.663 373.299 166.975 374.966 164.418C376.633 161.85 378.159 159.064 379.549 156.064C380.951 153.053 382.133 150.532 383.091 148.501L383.216 148.335L383.404 147.772C384.164 145.829 384.883 144.163 385.549 142.772C386.216 141.371 386.576 140.558 386.633 140.335C386.633 140.335 386.654 140.303 386.695 140.23C386.747 140.163 386.831 140.121 386.945 140.105C387.664 139.928 388.326 140.376 388.924 141.46C388.81 141.933 388.612 142.491 388.32 143.126C388.029 143.751 387.747 144.475 387.487 145.293C386.747 147.267 385.654 149.871 384.195 153.105C382.737 156.345 381.07 159.637 379.195 162.98C377.331 166.314 375.305 169.22 373.112 171.689C370.93 174.163 368.737 175.663 366.529 176.189C365.997 176.314 365.56 176.366 365.216 176.335C362.893 176.449 361.195 175.637 360.112 173.897C359.029 172.147 358.331 169.949 358.029 167.293C357.721 164.642 357.706 161.808 357.987 158.793C358.263 155.782 358.659 153.017 359.174 150.501C359.685 147.991 360.122 146.074 360.487 144.751C357.497 150.918 354.633 157.085 351.883 163.251C349.143 169.418 346.596 175.73 344.237 182.189C343.888 183.496 343.346 184.241 342.612 184.418C342.404 184.475 342.091 184.439 341.674 184.314C341.258 184.189 340.826 184.126 340.383 184.126C337.768 183.517 336.044 182.48 335.195 181.022C334.336 179.553 333.997 177.517 334.174 174.918C334.565 171.475 334.935 168.605 335.279 166.314C335.612 164.012 336.003 161.913 336.445 160.022C336.893 158.121 337.419 156.017 338.029 153.71C338.638 151.407 339.326 148.6 340.091 145.293C340.341 144.017 340.742 143.142 341.299 142.668C341.852 142.199 342.706 141.824 343.862 141.543C345.971 141.043 347.945 141.35 349.779 142.46L350.154 142.73C350.956 143.303 351.341 143.845 351.299 144.355C351.258 144.871 351.076 145.616 350.758 146.585C350.201 148.949 349.721 150.814 349.32 152.189C348.93 153.564 348.576 154.73 348.258 155.689C347.935 156.647 347.602 157.808 347.258 159.168C346.909 160.532 346.409 162.407 345.758 164.793C345.466 166.324 345.076 167.835 344.591 169.335C344.117 170.835 343.633 172.433 343.133 174.126C343.477 173.251 344.284 171.272 345.549 168.189C346.826 165.095 348.372 161.553 350.195 157.564C352.029 153.579 353.831 149.621 355.612 145.689C357.404 141.746 358.971 138.413 360.32 135.689C361.68 132.97 362.56 131.512 362.966 131.314C365.268 130.762 367.331 131.043 369.154 132.168Z" fill="black"/>
</svg>
