<svg width="35" height="35" viewBox="0 0 35 35" fill="none" xmlns="http://www.w3.org/2000/svg">
<g clip-path="url(#clip0_18_180)">
<path d="M27.1381 1.18417C26.7734 0.690167 26.262 0.323875 25.677 0.137482C25.0919 -0.0489105 24.4629 -0.0458941 23.8797 0.146101C23.2964 0.338097 22.7886 0.709276 22.4287 1.20675C22.0687 1.70423 21.8749 2.30262 21.875 2.91667V35H24.7916V28.6796C31.7916 21.0204 35.5833 11.8942 27.1381 1.18417ZM17.5 7.78498e-07V13.125C17.5 14.2853 17.039 15.3981 16.2186 16.2186C15.3981 17.0391 14.2853 17.5 13.125 17.5H11.6666V35H8.74996V17.5H7.29163C6.1313 17.5 5.01851 17.0391 4.19803 16.2186C3.37756 15.3981 2.91663 14.2853 2.91663 13.125V7.78498e-07H5.83329V13.125C5.83329 13.5118 5.98694 13.8827 6.26043 14.1562C6.53392 14.4297 6.90485 14.5833 7.29163 14.5833H8.74996V7.78498e-07H11.6666V14.5833H13.125C13.5117 14.5833 13.8827 14.4297 14.1562 14.1562C14.4296 13.8827 14.5833 13.5118 14.5833 13.125V7.78498e-07H17.5Z" fill="#FFEEDB"/>
</g>
<defs>
<clipPath id="clip0_18_180">
<rect width="35" height="35" fill="white"/>
</clipPath>
</defs>
</svg>
