<svg width="35" height="35" viewBox="0 0 35 35" fill="none" xmlns="http://www.w3.org/2000/svg">
<path d="M25.5176 0C23.8761 0.0273781 22.2704 0.518729 20.8627 1.42443C19.4549 2.33014 18.295 3.61812 17.5 5.15832C16.705 3.61812 15.5451 2.33014 14.1373 1.42443C12.7296 0.518729 11.1239 0.0273781 9.4824 0C6.86566 0.121909 4.40027 1.34938 2.62485 3.41423C0.849429 5.47909 -0.0917059 8.2135 0.0070571 11.0201C0.0070571 21.6102 15.9781 33.8417 16.6574 34.3607L17.5 35L18.3426 34.3607C19.0219 33.8448 34.9929 21.6102 34.9929 11.0201C35.0917 8.2135 34.1506 5.47909 32.3752 3.41423C30.5997 1.34938 28.1343 0.121909 25.5176 0Z" fill="#FFEEDB"/>
</svg>
