<svg width="35" height="35" viewBox="0 0 35 35" fill="none" xmlns="http://www.w3.org/2000/svg">
<path d="M17.5 20.1952C16.3397 20.1952 15.2269 20.6617 14.4064 21.4923C13.5859 22.3228 13.125 23.4492 13.125 24.6238V34.9956H21.875V24.6238C21.875 23.4492 21.4141 22.3228 20.5936 21.4923C19.7731 20.6617 18.6603 20.1952 17.5 20.1952Z" fill="#FFEEDB"/>
<path d="M19.4513 0.757994C18.9157 0.270014 18.2206 0 17.5 0C16.7794 0 16.0843 0.270014 15.5487 0.757994L0 14.9236V30.2762C0 31.529 0.491665 32.7305 1.36684 33.6164C2.242 34.5023 3.42899 35 4.66667 35H10.2083V24.6238C10.2083 22.6662 10.9766 20.7888 12.344 19.4046C13.7115 18.0204 15.5661 17.2428 17.5 17.2428C19.4339 17.2428 21.2885 18.0204 22.656 19.4046C24.0234 20.7888 24.7917 22.6662 24.7917 24.6238V34.9956H30.3333C31.571 34.9956 32.758 34.4979 33.6332 33.612C34.5083 32.7261 35 31.5246 35 30.2717V14.9192L19.4513 0.757994Z" fill="#FFEEDB"/>
</svg>
