<svg width="186" height="167" viewBox="0 0 186 167" fill="none" xmlns="http://www.w3.org/2000/svg">
<path d="M121.004 86.5736C119.655 89.7976 117.649 93.1465 114.983 96.6153C112.316 100.074 109.363 103.417 106.129 106.636C102.905 109.86 99.712 112.792 96.5453 115.428L97.6703 115.157C102.712 113.949 107.134 113.756 110.941 114.574C114.759 115.381 117.571 117.147 119.379 119.865C121.196 122.589 121.493 126.272 120.274 130.907C119.16 134.615 117.118 138.381 114.149 142.199C111.176 146.022 107.639 149.589 103.545 152.907C99.4464 156.214 95.2016 159.053 90.8161 161.428C86.4411 163.813 82.4203 165.449 78.7536 166.324C76.0141 166.975 73.5974 167.105 71.5036 166.719C69.4203 166.329 67.8422 165.313 66.7745 163.678C66.4411 163.105 66.5349 162.761 67.0661 162.636C67.6078 162.605 68.2224 162.537 68.9203 162.428C69.613 162.313 70.3214 162.178 71.0453 162.011C74.3057 161.23 77.9255 159.751 81.8995 157.574C85.8839 155.407 89.8995 152.782 93.9411 149.699C97.9828 146.615 101.634 143.438 104.899 140.157C108.176 136.881 110.733 133.74 112.566 130.74C114.41 127.74 115.129 125.157 114.712 122.99C114.295 120.813 112.347 119.417 108.879 118.803C107.363 118.501 105.733 118.417 103.983 118.553C102.233 118.693 100.41 118.99 98.5245 119.449C95.9932 120.048 93.4255 120.907 90.8161 122.032C88.2016 123.157 85.738 124.449 83.4203 125.907C81.9724 130.563 80.7328 135.24 79.6911 139.949C78.6495 144.647 77.9099 149.324 77.4828 153.99C74.6599 154.313 72.8682 153.344 72.1078 151.094C71.3578 148.834 71.2328 145.86 71.7328 142.178C72.2432 138.501 73.0766 134.667 74.2328 130.678C75.3839 126.678 76.5141 123.074 77.6286 119.865C78.7536 116.657 79.5141 114.506 79.9203 113.407C81.9203 107.824 84.0089 102.49 86.1911 97.407C88.3682 92.3236 90.3474 87.8549 92.1286 83.9903C93.9203 80.1153 95.2172 77.3028 96.0245 75.5528C98.6599 76.3757 100.399 77.1309 101.233 77.8236C102.077 78.5059 101.905 80.0945 100.712 82.5945C98.5714 87.5424 96.363 92.5945 94.087 97.7611C91.8214 102.917 89.6703 108.178 87.6286 113.553C90.4307 111.318 93.4672 108.563 96.7328 105.282C99.9932 102.006 103.118 98.5111 106.108 94.8028C109.108 91.084 111.556 87.5007 113.462 84.0528C115.363 80.5945 116.358 77.5528 116.441 74.9278C116.535 72.3028 115.347 70.4486 112.879 69.3653C110.837 68.2976 108.452 67.782 105.733 67.8236C103.024 67.8549 99.988 68.2715 96.6286 69.0736C91.587 70.282 86.2745 72.2195 80.6911 74.8861C75.1182 77.5528 69.8161 80.657 64.7745 84.1986C59.7328 87.7403 55.4203 91.4434 51.837 95.3028C48.2536 99.1518 45.8474 102.897 44.6078 106.532C43.3734 110.157 43.8578 113.318 46.0661 116.011C47.1495 117.303 48.3995 118.115 49.8161 118.449C51.2328 118.772 52.4828 118.886 53.5661 118.803C54.6495 118.709 55.2068 118.709 55.2328 118.803C55.4724 118.86 55.3318 119.089 54.8161 119.49C54.2901 119.897 53.5557 120.209 52.6078 120.428C51.3578 120.735 49.7693 120.792 47.837 120.594C45.8943 120.386 44.0766 119.626 42.3786 118.303C40.6703 116.985 39.3474 114.834 38.3995 111.844C37.6807 108.803 37.837 105.631 38.8786 102.324C39.9099 99.0059 41.3786 96.0111 43.2953 93.3445C47.2432 87.959 51.8318 83.2195 57.0661 79.1361C62.3057 75.0424 67.7797 71.6153 73.5036 68.8653C79.2224 66.1153 84.8214 64.0893 90.2953 62.782C95.7536 61.4799 100.879 60.9695 105.67 61.2611C110.462 61.5528 114.337 62.7403 117.295 64.8236C119.931 66.6309 121.712 69.4486 122.629 73.282C123.556 77.1153 123.014 81.5476 121.004 86.5736Z" fill="#FFEEDB"/>
<path d="M173.483 69.8472C173.899 67.8785 174.264 65.941 174.587 64.0347C174.905 62.118 174.837 60.2118 174.378 58.3055C174.113 57.1701 173.451 55.8055 172.399 54.2222C171.358 52.6285 169.941 52.0451 168.149 52.4722C166.259 52.9305 164.259 54.217 162.149 56.3264C160.05 58.441 158.014 60.9514 156.045 63.868C154.071 66.7847 152.233 69.7795 150.524 72.8472C148.826 75.9201 147.368 78.7378 146.149 81.3056C144.925 83.8785 144.03 85.842 143.462 87.2014C141.821 91.0347 140.233 95.4201 138.691 100.347C137.149 105.264 136.056 110.217 135.42 115.201C134.78 120.191 134.962 124.785 135.962 128.993C136.238 130.149 136.753 131.608 137.503 133.368C138.264 135.134 139.347 136.628 140.753 137.847C142.155 139.056 143.847 139.425 145.837 138.951C148.155 138.399 150.514 136.889 152.92 134.431C155.321 131.962 157.634 128.988 159.858 125.514C162.092 122.03 164.134 118.462 165.983 114.806C167.826 111.139 169.342 107.722 170.524 104.556C171.717 101.389 172.488 98.9253 172.837 97.1597C170.03 98.3993 166.826 100.003 163.233 101.972C159.649 103.931 156.233 105.993 152.983 108.16C149.733 110.326 147.118 112.425 145.149 114.451C144.91 114.842 144.696 115.092 144.503 115.201C144.306 115.316 144.155 115.384 144.045 115.41C143.321 115.576 142.774 115.342 142.399 114.701C142.024 114.066 141.774 113.483 141.649 112.951C141.566 112.634 141.524 112.259 141.524 111.826C141.524 111.384 141.696 110.951 142.045 110.535C142.363 110.009 142.967 109.306 143.858 108.431C146.785 105.722 150.316 102.91 154.441 99.993C158.576 97.066 162.863 94.4305 167.295 92.0972C171.738 89.7535 175.743 88.1493 179.316 87.2847C179.524 87.2431 180.024 87.1337 180.816 86.9514C181.608 86.7587 182.066 86.7014 182.191 86.7847C182.951 86.7014 183.675 87.1701 184.358 88.1805C185.05 89.1805 185.462 89.9462 185.587 90.4722C185.78 91.3055 185.326 92.0139 184.233 92.5972C183.217 92.9618 182.118 93.342 180.941 93.743C179.759 94.1337 178.613 94.566 177.503 95.0347C177.738 97.441 177.446 100.514 176.628 104.264C175.806 108.014 174.535 111.988 172.816 116.181C171.092 120.363 168.962 124.368 166.42 128.201C163.889 132.024 161.05 135.337 157.899 138.139C154.743 140.946 151.378 142.774 147.795 143.639C143.905 144.566 140.535 144.399 137.691 143.139C134.842 141.889 132.524 140.066 130.733 137.66C128.941 135.259 127.753 132.847 127.17 130.431C126.311 126.863 126.139 122.431 126.649 117.139C127.149 111.847 128.201 106.181 129.816 100.139C131.425 94.0868 133.451 88.0451 135.899 82.0139C138.342 75.9878 141.139 70.4045 144.295 65.2639C147.446 60.1128 150.8 55.8055 154.358 52.3472C157.925 48.8889 161.608 46.7118 165.399 45.8055C167.91 45.1962 170.03 45.3837 171.753 46.368C173.488 47.342 174.847 48.6285 175.837 50.2222C176.837 51.8212 177.509 53.3576 177.858 54.8264C178.009 55.4514 178.155 56.6389 178.295 58.3889C178.446 60.1285 178.483 62.0035 178.399 64.0139C178.326 66.0295 178.087 67.8056 177.67 69.3472C177.264 70.8889 176.639 71.7639 175.795 71.9722C175.264 72.0972 174.78 72.0243 174.337 71.7431C173.889 71.4514 173.613 71.0972 173.503 70.6806C173.462 70.4618 173.451 70.2951 173.483 70.1806C173.509 70.0712 173.509 69.9618 173.483 69.8472Z" fill="#FFEEDB"/>
<mask id="mask0_94_263" style="mask-type:luminance" maskUnits="userSpaceOnUse" x="0" y="0" width="95" height="86">
<path d="M0.333313 0.302124H95V85.0886H0.333313V0.302124Z" fill="white"/>
</mask>
<g mask="url(#mask0_94_263)">
<path fill-rule="evenodd" clip-rule="evenodd" d="M15.3437 67.6094L28.3698 84.6823C28.3698 84.6823 40.2344 58.4792 68.5729 49.4636C68.5729 49.4636 43.2448 54.5886 27.651 74.6511L22.1458 67.474L20.1302 64.9011L22.1666 61.6875C17.2396 61.4115 12.2969 61.5886 8.56769 56.4219C4.83852 51.2605 9.82289 37.2396 20.3541 33.8073C20.8125 33.6511 21.2864 33.5313 21.75 33.4115C21.1875 38.0365 20.5521 44.0782 20.3125 44.698C25.2187 32.7917 46.2396 -10.8229 60.4583 20.448C60.4583 20.448 60.7187 19.3073 60.9375 17.573C74.9375 8.52087 78.5833 19.1719 78.7656 28.4219C53.875 26.073 36.3281 51.3803 33.9114 55.0678L33.8906 55.0886L33.8333 55.1667C33.6927 55.3855 33.6146 55.5053 33.6146 55.5053L35.1094 54.073C51.4219 38.6355 67.6979 35.8803 74.6979 35.4428L83.0312 47.1719C83.0312 47.1719 48.4531 55.2865 35.4896 84.4844C35.4896 84.4844 58.901 56.4063 94.2812 52.474L83.0312 33.8907C89.0156 8.42192 71.8229 3.93233 61.875 8.73962C61.4323 8.93754 61.0573 9.05733 60.7552 9.14067C59.8385 4.55212 57.125 0.322959 50.3073 0.302124C49.1875 0.302124 47.9739 0.406291 46.6146 0.640666C30.2656 3.55733 25.1198 19.6094 22.4844 28.1823C22.4635 28.2448 22.4479 28.3438 22.4271 28.4427C21.6666 28.5417 21.0677 28.6407 20.75 28.6823C19.0573 28.9011 17.3802 29.2813 15.7031 29.8177C2.96352 33.9688 -1.5469 48.7084 1.46352 57.1823C4.09894 64.6198 8.96352 66.2344 15.3073 67.5938L15.3437 67.6094Z" fill="#BA3B46"/>
</g>
</svg>
