<svg width="555" height="343" viewBox="0 0 555 343" fill="none" xmlns="http://www.w3.org/2000/svg">
<path d="M169.983 121.522C168.086 126.018 165.253 130.711 161.49 135.609C157.741 140.493 153.59 145.208 149.043 149.754C144.489 154.286 140.001 158.408 135.571 162.113L137.123 161.732C144.225 160.034 150.456 159.763 155.808 160.912C161.175 162.069 165.136 164.566 167.698 168.41C170.253 172.239 170.671 177.415 168.958 183.931C167.391 189.144 164.513 194.445 160.318 199.834C156.137 205.223 151.159 210.253 145.382 214.916C139.62 219.566 133.653 223.563 127.488 226.924C121.316 230.277 115.642 232.576 110.473 233.806C106.622 234.721 103.224 234.904 100.281 234.362C97.3306 233.813 95.1268 232.386 93.6625 230.087C93.15 229.281 93.2671 228.798 94.0139 228.622C94.79 228.578 95.6613 228.476 96.6204 228.3C97.5942 228.139 98.5972 227.934 99.6369 227.685C104.22 226.587 109.309 224.522 114.895 221.477C120.496 218.431 126.148 214.741 131.852 210.406C137.548 206.072 142.695 201.591 147.286 196.964C151.891 192.337 155.493 187.929 158.092 183.726C160.706 179.509 161.709 175.863 161.109 172.773C160.523 169.691 157.799 167.721 152.938 166.858C150.771 166.433 148.457 166.316 145.997 166.506C143.552 166.704 141.004 167.121 138.353 167.765C134.795 168.607 131.164 169.83 127.459 171.426C123.769 173.03 120.298 174.845 117.062 176.873C115.012 183.456 113.255 190.052 111.791 196.671C110.326 203.275 109.287 209.864 108.686 216.439C104.718 216.893 102.199 215.524 101.13 212.339C100.054 209.162 99.8712 204.981 100.574 199.805C101.292 194.636 102.463 189.232 104.088 183.609C105.728 177.986 107.325 172.912 108.891 168.38C110.473 163.856 111.556 160.817 112.142 159.272C114.954 151.409 117.882 143.897 120.928 136.751C123.988 129.605 126.785 123.309 129.304 117.862C131.837 112.414 133.682 108.461 134.839 106.001C138.529 107.135 140.96 108.19 142.131 109.164C143.317 110.123 143.083 112.37 141.428 115.899C138.383 122.891 135.256 130.015 132.057 137.278C128.872 144.527 125.848 151.922 122.978 159.477C126.917 156.358 131.186 152.478 135.776 147.851C140.381 143.223 144.796 138.296 149.014 133.061C153.245 127.834 156.701 122.796 159.381 117.949C162.053 113.088 163.452 108.805 163.569 105.093C163.701 101.388 162.024 98.7669 158.532 97.244C155.676 95.7431 152.338 95.0182 148.516 95.0768C144.687 95.1354 140.411 95.7357 135.688 96.8633C128.579 98.5619 121.089 101.3 113.226 105.063C105.355 108.812 97.8651 113.176 90.7631 118.154C83.6758 123.133 77.6136 128.339 72.5763 133.764C67.5391 139.197 64.1565 144.468 62.414 149.579C60.6568 154.674 61.3304 159.126 64.4347 162.933C65.9796 164.749 67.7441 165.891 69.7356 166.36C71.727 166.828 73.4842 166.997 75.0071 166.858C76.53 166.726 77.3134 166.733 77.35 166.887C77.6868 166.967 77.4891 167.29 76.7643 167.853C76.0248 168.424 74.9924 168.864 73.6599 169.171C71.9027 169.603 69.6623 169.669 66.9241 169.376C64.1931 169.083 61.6379 168.022 59.2511 166.184C56.8496 164.332 54.9753 161.293 53.6281 157.076C52.6177 152.785 52.852 148.312 54.331 143.663C55.7953 138.999 57.8746 134.782 60.5689 131.011C66.0967 123.441 72.5617 116.771 79.9565 111.009C87.3366 105.232 95.0536 100.407 103.122 96.5411C111.183 92.6753 119.061 89.8272 126.756 87.9895C134.444 86.1372 141.67 85.4123 148.428 85.8223C155.178 86.2323 160.618 87.9017 164.74 90.8303C168.489 93.3709 171.008 97.3465 172.296 102.75C173.585 108.16 172.809 114.42 169.983 121.522Z" fill="#FFEEDB"/>
<path d="M218.058 171.479C218.6 171.816 219.098 171.933 219.552 171.83C220.723 171.538 222.085 170.234 223.652 167.906C225.211 165.563 226.844 162.715 228.542 159.354C230.241 155.979 231.852 152.582 233.375 149.163C234.898 145.751 236.142 142.83 237.123 140.406C238.119 137.99 238.654 136.599 238.734 136.248C239.613 136.035 240.294 135.984 240.784 136.101C241.289 136.218 241.846 136.833 242.453 137.946C241.765 139.82 240.594 142.998 238.939 147.464C237.277 151.938 235.286 156.682 232.965 161.697C230.636 166.698 228.059 171.142 225.233 175.023C222.4 178.888 219.508 181.173 216.564 181.876C214.763 182.308 212.948 181.978 211.117 180.88C208.437 179.32 206.666 176.89 205.787 173.588C204.923 170.271 204.352 167.086 204.059 164.04C204.118 163.535 204.088 163.066 203.971 162.634C202.602 166.72 201.145 170.937 199.608 175.286C198.063 179.643 196.489 183.538 194.893 186.971C193.289 190.391 191.561 192.799 189.709 194.205C189.548 194.249 189.372 194.337 189.182 194.469C188.984 194.586 188.728 194.688 188.42 194.762C187.835 194.901 187.256 194.923 186.692 194.82C186.121 194.725 185.44 194.615 184.642 194.498C180.696 193.7 178.016 191.328 176.589 187.381C175.168 183.42 174.626 178.588 174.978 172.885C175.329 167.167 176.31 161.258 177.906 155.166C179.488 149.075 181.37 143.423 183.559 138.21C185.763 132.982 187.93 128.926 190.06 126.056C192.52 122.659 194.936 120.682 197.323 120.111C198.495 119.818 199.615 119.833 200.691 120.14C201.782 120.433 202.719 120.872 203.503 121.458C206.666 123.53 208.569 126.254 209.214 129.629C209.858 132.989 210.129 136.387 210.034 139.82C211.103 139.118 212.01 138.678 212.757 138.503C215.254 137.902 217.853 138.59 220.547 140.582C221.441 141.168 221.924 141.607 221.982 141.9C222.056 142.193 221.726 142.742 220.987 143.54C219.207 145.868 218.095 149.192 217.648 153.526C217.194 157.846 217.062 161.397 217.238 164.187C217.018 167.818 217.297 170.249 218.058 171.479ZM199.93 135.925C198.268 138.817 196.635 142.808 195.039 147.903C193.436 152.985 192.059 158.198 190.91 163.542C189.775 168.894 189.043 173.492 188.713 177.336C188.376 181.165 188.669 183.362 189.592 183.926C190.763 183.633 192.14 181.575 193.721 177.746C195.317 173.924 197.096 169.392 199.051 164.157C200.999 158.93 202.873 154.134 204.674 149.778C204.982 148.475 205.304 147.23 205.641 146.058C205.992 144.872 206.592 143.789 207.456 142.808C206.592 135.354 205.289 131.84 203.532 132.265C202.946 132.404 202.375 132.814 201.833 133.495C201.284 134.161 200.647 134.974 199.93 135.925Z" fill="#FFEEDB"/>
<path d="M262.914 80.4802C261.566 82.6913 259.934 86.5278 258.023 91.9897C256.126 97.4589 254.194 103.909 252.224 111.348C250.247 118.772 248.366 126.723 246.572 135.216C244.771 143.709 243.175 152.078 241.769 160.315C240.378 168.537 239.382 176.159 238.782 183.187C238.196 190.194 238.137 195.993 238.606 200.583C236.966 200.818 235.516 200.29 234.272 199.002C233.027 197.728 232.031 196.176 231.284 194.345C230.523 192.508 230.01 190.992 229.732 189.806C229.132 185.413 229.146 179.468 229.791 171.971C230.435 164.459 231.423 156.273 232.749 147.429C234.059 138.584 235.546 129.82 237.229 121.13C238.906 112.446 240.48 104.671 241.945 97.8177C243.424 90.9647 244.654 85.9494 245.635 82.7645C246.411 80.8316 247.187 79.1916 247.948 77.8444C248.724 76.4826 250.152 75.5527 252.224 75.0622C255.343 74.3007 258.111 74.6961 260.512 76.2336C262.914 77.7785 263.712 79.1916 262.914 80.4802Z" fill="#FFEEDB"/>
<path d="M294.178 154.172C296.85 153.549 299.281 151.961 301.47 149.398C303.674 146.843 305.577 144.039 307.181 140.993C308.799 137.947 310.124 135.282 311.164 132.998C312.548 130.347 313.778 127.668 314.854 124.973C315.945 122.279 317.006 119.555 318.046 116.802C319.525 116.451 320.696 117.029 321.56 118.53C319.664 123.084 317.665 127.99 315.557 133.261C313.463 138.533 311.076 143.563 308.382 148.344C305.687 153.11 302.385 157.144 298.483 160.439C297.663 160.966 296.879 161.479 296.14 161.962C295.393 162.452 294.588 162.797 293.709 162.987C293.123 163.148 292.574 163.163 292.069 163.046C291.557 162.928 291.081 162.855 290.634 162.811L289.931 162.987C288.094 162.482 285.846 161.135 283.195 158.945C280.56 156.742 278.056 154.282 275.698 151.565C273.333 148.856 271.481 146.645 270.134 144.947C269.292 147.333 268.347 150.408 267.293 154.172C266.253 157.942 265.272 161.654 264.335 165.301C263.412 168.954 262.724 172.095 262.256 174.731C261.626 176.766 260.879 177.886 260.001 178.099C259.254 178.274 258.214 178.128 256.867 177.659C254.055 176.451 252.408 174.811 251.918 172.739C251.434 170.675 251.098 168.332 250.922 165.711C250.746 159.641 251.259 152.239 252.445 143.512C253.638 134.784 255.242 125.647 257.248 116.1C259.254 106.552 261.443 97.3856 263.808 88.5997C266.187 79.8138 268.42 72.2799 270.514 65.9907C271.056 63.8235 271.693 62.1102 272.418 60.8363C273.136 59.5697 274.614 58.6691 276.84 58.1419C280.098 57.3659 282.939 57.8198 285.363 59.5184C287.801 61.2024 288.555 62.7033 287.618 64.0285C286.131 66.2543 284.396 69.959 282.405 75.128C280.428 80.3044 278.378 86.4252 276.255 93.4905C274.124 100.563 272.081 108.046 270.134 115.953C268.179 123.86 266.444 131.673 264.921 139.382C263.398 147.099 262.314 154.157 261.67 160.556C264.833 150.247 267.908 140.568 270.895 131.504C273.882 122.425 278.056 113.098 283.43 103.506C284.345 102.027 285.582 100.007 287.149 97.4442C288.73 94.867 290.429 93.4539 292.245 93.1977C293.431 92.9048 294.925 93.0952 296.726 93.7541C298.519 94.4204 299.757 95.5332 300.445 97.0927C301.419 99.831 301.616 103.419 301.031 107.87C300.445 112.307 299.164 116.795 297.194 121.342C295.239 125.874 292.684 129.849 289.521 133.261C286.358 136.659 282.763 138.84 278.744 139.792C280.106 141.535 281.702 143.592 283.518 145.972C285.348 148.336 287.193 150.321 289.053 151.917C290.927 153.498 292.633 154.252 294.178 154.172ZM291.454 100.636C290.693 101.303 289.47 103.243 287.793 106.464C286.131 109.671 284.374 113.288 282.522 117.33C280.684 121.371 279.066 125.054 277.66 128.371C276.269 131.673 275.361 133.759 274.937 134.638L275.347 135.458L276.05 135.311C278.114 134.806 280.157 133.071 282.17 130.098C284.176 127.111 286.007 123.626 287.647 119.643C289.287 115.646 290.458 111.875 291.161 108.339C291.879 104.81 291.981 102.24 291.454 100.636Z" fill="#FFEEDB"/>
<path d="M351.662 139.513C352.203 139.85 352.701 139.967 353.155 139.864C354.327 139.571 355.688 138.268 357.255 135.94C358.815 133.597 360.447 130.749 362.146 127.388C363.845 124.013 365.455 120.616 366.978 117.197C368.501 113.785 369.746 110.864 370.727 108.44C371.723 106.024 372.257 104.633 372.338 104.281C373.216 104.069 373.897 104.018 374.388 104.135C374.893 104.252 375.449 104.867 376.057 105.98C375.369 107.854 374.197 111.032 372.543 115.498C370.881 119.972 368.889 124.716 366.568 129.731C364.24 134.732 361.663 139.176 358.837 143.057C356.003 146.922 353.111 149.207 350.168 149.91C348.367 150.342 346.551 150.012 344.721 148.914C342.041 147.354 340.269 144.924 339.391 141.622C338.527 138.305 337.956 135.12 337.663 132.074C337.721 131.569 337.692 131.1 337.575 130.668C336.206 134.754 334.749 138.971 333.211 143.32C331.666 147.676 330.092 151.572 328.496 155.005C326.893 158.425 325.165 160.833 323.312 162.239C323.151 162.283 322.976 162.371 322.785 162.503C322.588 162.62 322.331 162.722 322.024 162.796C321.438 162.935 320.86 162.957 320.296 162.854C319.725 162.759 319.044 162.649 318.246 162.532C314.3 161.734 311.62 159.362 310.192 155.415C308.772 151.454 308.23 146.622 308.581 140.919C308.933 135.201 309.914 129.292 311.51 123.2C313.091 117.109 314.973 111.457 317.162 106.244C319.366 101.016 321.533 96.9599 323.664 94.0898C326.124 90.6926 328.54 88.7158 330.927 88.1447C332.098 87.8519 333.218 87.8665 334.295 88.174C335.386 88.4669 336.323 88.9062 337.106 89.4919C340.269 91.5639 342.173 94.2875 342.817 97.6628C343.461 101.023 343.732 104.421 343.637 107.854C344.706 107.152 345.614 106.712 346.361 106.537C348.857 105.936 351.457 106.624 354.151 108.616C355.044 109.202 355.527 109.641 355.586 109.934C355.659 110.227 355.33 110.776 354.59 111.574C352.811 113.902 351.698 117.226 351.252 121.56C350.798 125.88 350.666 129.431 350.841 132.221C350.622 135.852 350.9 138.283 351.662 139.513ZM333.533 103.959C331.871 106.851 330.239 110.842 328.642 115.937C327.039 121.019 325.663 126.232 324.513 131.576C323.378 136.928 322.646 141.526 322.317 145.37C321.98 149.199 322.273 151.396 323.195 151.96C324.367 151.667 325.743 149.609 327.325 145.78C328.921 141.958 330.7 137.426 332.655 132.191C334.602 126.964 336.477 122.168 338.278 117.812C338.585 116.509 338.907 115.264 339.244 114.092C339.596 112.906 340.196 111.823 341.06 110.842C340.196 103.388 338.893 99.8739 337.136 100.299C336.55 100.438 335.979 100.848 335.437 101.529C334.888 102.195 334.251 103.008 333.533 103.959Z" fill="#FFEEDB"/>
<path d="M412.214 77.8587C414.535 79.0155 415.45 81.2193 414.967 84.4774L414.938 85.1803C414.74 86.3371 414.213 88.7385 413.356 92.3847C412.493 96.0162 411.673 100.116 410.896 104.685C410.135 109.254 409.505 113.632 409.022 117.805C408.532 121.986 408.532 125.273 409.022 127.675C409.505 130.062 410.691 130.94 412.566 130.31C415.436 129.161 418.042 126.789 420.385 123.194C422.728 119.584 424.873 115.667 426.828 111.45C428.798 107.218 430.46 103.675 431.807 100.819L431.983 100.585L432.246 99.7941C433.315 97.0632 434.325 94.7203 435.263 92.7654C436.2 90.7959 436.705 89.6537 436.786 89.3389C436.786 89.3389 436.815 89.295 436.873 89.1925C436.947 89.0973 437.064 89.0387 437.225 89.0168C438.235 88.7678 439.165 89.3975 440.007 90.9204C439.846 91.5866 439.568 92.3701 439.158 93.2633C438.748 94.1419 438.352 95.1596 437.986 96.3091C436.947 99.0839 435.409 102.745 433.359 107.291C431.309 111.845 428.966 116.473 426.33 121.173C423.709 125.859 420.861 129.944 417.779 133.415C414.711 136.893 411.629 139.001 408.524 139.741C407.777 139.916 407.162 139.99 406.679 139.946C403.414 140.107 401.027 138.965 399.504 136.519C397.981 134.059 397 130.969 396.575 127.235C396.143 123.509 396.121 119.526 396.517 115.287C396.905 111.055 397.461 107.167 398.186 103.631C398.904 100.102 399.519 97.4073 400.031 95.5476C395.829 104.216 391.802 112.885 387.936 121.554C384.085 130.223 380.505 139.096 377.188 148.175C376.697 150.013 375.936 151.06 374.904 151.309C374.611 151.389 374.171 151.338 373.586 151.162C373 150.987 372.392 150.899 371.77 150.899C368.094 150.042 365.671 148.585 364.478 146.535C363.27 144.47 362.794 141.608 363.043 137.954C363.592 133.115 364.112 129.08 364.595 125.859C365.063 122.623 365.612 119.672 366.235 117.014C366.864 114.342 367.604 111.384 368.461 108.141C369.317 104.905 370.284 100.958 371.36 96.3091C371.711 94.5153 372.275 93.2852 373.059 92.619C373.835 91.96 375.035 91.4329 376.661 91.0375C379.626 90.3347 382.401 90.7666 384.978 92.3261L385.505 92.7068C386.633 93.5122 387.175 94.2737 387.116 94.9912C387.057 95.716 386.801 96.763 386.354 98.1248C385.571 101.449 384.898 104.07 384.334 106.003C383.785 107.936 383.287 109.576 382.84 110.923C382.386 112.27 381.918 113.903 381.434 115.814C380.944 117.732 380.241 120.368 379.326 123.721C378.916 125.874 378.367 127.997 377.686 130.105C377.019 132.214 376.339 134.462 375.636 136.841C376.119 135.611 377.254 132.829 379.033 128.495C380.827 124.146 383.001 119.167 385.564 113.559C388.141 107.958 390.674 102.393 393.178 96.8655C395.697 91.3231 397.901 86.6373 399.797 82.8081C401.708 78.9862 402.945 76.9362 403.516 76.6579C406.752 75.8819 409.652 76.2772 412.214 77.8587Z" fill="#FFEEDB"/>
<path d="M421.808 130.688C420.739 128.755 420.49 127.723 421.076 127.584C421.391 127.51 421.72 127.584 422.071 127.818C422.525 128.345 423.763 128.609 425.791 128.609C427.804 128.594 430.001 128.301 432.38 127.73C435.485 126.968 438.34 125.695 440.961 123.893C443.575 122.1 444.637 119.53 444.153 116.191C444.073 114.493 443.158 112.457 441.4 110.07C439.643 107.669 437.74 104.996 435.69 102.046C433.654 99.0806 431.985 95.8371 430.682 92.3228C429.393 88.7938 429.1 84.8767 429.803 80.579C430.491 76.2666 432.673 71.7052 436.363 66.9023C437.63 65.0499 438.977 63.6735 440.405 62.7729C441.825 61.8797 443.282 61.25 444.768 60.8986C447.887 60.1591 450.582 60.4593 452.851 61.8064C455.114 63.139 455.875 64.2006 455.136 64.9987C451.387 68.2421 447.909 72.0127 444.71 76.3032C441.503 80.579 439.614 85.1037 439.028 89.8627C438.443 94.6291 440.039 99.3661 443.831 104.067C446.189 106.644 448.385 109.565 450.421 112.823C452.449 116.089 453.327 119.471 453.056 122.986C452.954 125.841 451.387 128.572 448.341 131.186C445.296 133.785 441.847 135.542 438.003 136.457C434.877 137.204 431.86 137.182 428.954 136.399C426.025 135.623 423.646 133.719 421.808 130.688Z" fill="#FFEEDB"/>
<path d="M498.799 105.214C501.472 104.591 503.903 103.002 506.092 100.44C508.296 97.8847 510.199 95.0805 511.803 92.0347C513.421 88.9889 514.746 86.3239 515.785 84.0396C517.169 81.3891 518.399 78.7094 519.476 76.0151C520.566 73.3208 521.628 70.5971 522.668 67.8442C524.147 67.4928 525.318 68.0712 526.182 69.5721C524.286 74.1261 522.287 79.0316 520.178 84.3031C518.084 89.5747 515.698 94.6046 513.003 99.3856C510.309 104.152 507.007 108.186 503.105 111.481C502.285 112.008 501.501 112.52 500.762 113.004C500.015 113.494 499.209 113.838 498.331 114.029C497.745 114.19 497.196 114.204 496.691 114.087C496.178 113.97 495.702 113.897 495.256 113.853L494.553 114.029C492.715 113.524 490.467 112.176 487.817 109.987C485.181 107.783 482.677 105.323 480.32 102.607C477.955 99.8981 476.103 97.687 474.755 95.9884C473.913 98.3752 472.969 101.45 471.915 105.214C470.875 108.984 469.894 112.696 468.957 116.342C468.034 119.996 467.346 123.137 466.877 125.773C466.248 127.808 465.501 128.928 464.622 129.14C463.876 129.316 462.836 129.17 461.489 128.701C458.677 127.493 457.03 125.853 456.539 123.781C456.056 121.716 455.719 119.373 455.544 116.752C455.368 110.683 455.88 103.281 457.066 94.5533C458.26 85.826 459.863 76.6887 461.869 67.1414C463.876 57.594 466.065 48.4274 468.43 39.6415C470.809 30.8556 473.042 23.3217 475.136 17.0325C475.678 14.8653 476.315 13.152 477.04 11.8781C477.757 10.6115 479.236 9.71091 481.462 9.18375C484.72 8.40767 487.561 8.8616 489.984 10.5602C492.422 12.2442 493.176 13.7451 492.239 15.0703C490.753 17.2961 489.018 21.0008 487.026 26.1698C485.05 31.3462 482.999 37.467 480.876 44.5323C478.746 51.605 476.703 59.0876 474.755 66.9949C472.801 74.9022 471.065 82.7144 469.542 90.424C468.02 98.1409 466.936 105.199 466.292 111.598C469.455 101.289 472.53 91.6101 475.517 82.546C478.504 73.4672 482.677 64.1395 488.051 54.5482C488.967 53.0693 490.204 51.0485 491.771 48.486C493.352 45.9088 495.051 44.4957 496.867 44.2395C498.053 43.9466 499.546 44.137 501.347 44.7959C503.141 45.4622 504.378 46.575 505.067 48.1345C506.04 50.8728 506.238 54.4604 505.652 58.9119C505.067 63.3488 503.785 67.8369 501.816 72.3836C499.861 76.9157 497.306 80.8913 494.143 84.3031C490.98 87.7003 487.385 89.8822 483.366 90.834C484.727 92.5765 486.323 94.6339 488.139 97.0134C489.97 99.3783 491.815 101.362 493.674 102.959C495.549 104.54 497.255 105.294 498.799 105.214ZM496.076 51.6782C495.314 52.3445 494.092 54.2847 492.415 57.5062C490.753 60.713 488.996 64.3299 487.143 68.3714C485.306 72.4129 483.688 76.0956 482.282 79.4123C480.891 82.7144 479.983 84.801 479.558 85.6796L479.968 86.4996L480.671 86.3532C482.736 85.848 484.779 84.1128 486.792 81.1402C488.798 78.153 490.629 74.6679 492.269 70.685C493.909 66.6874 495.08 62.9168 495.783 59.3805C496.5 55.8515 496.603 53.2816 496.076 51.6782Z" fill="#FFEEDB"/>
<path d="M538.038 4.56999C539.678 4.18195 541.362 4.36499 543.104 5.12643C544.861 5.87324 546.121 6.85433 546.882 8.08435C547.307 8.59686 547.409 9.18991 547.175 9.87082C546.955 10.559 546.75 11.1594 546.56 11.6866C544.43 17.0606 542.358 22.4493 540.351 27.8526C538.36 33.2633 536.295 38.7178 534.172 44.2237C533.799 45.2414 533.535 45.7685 533.381 45.8051C533.103 45.8637 532.649 45.2706 532.005 44.0187C530.892 40.68 530.453 36.719 530.687 32.1284C530.921 27.5451 531.544 22.9764 532.561 18.4224C533.594 13.8757 534.743 10.0465 536.017 6.94219C536.778 5.49984 537.452 4.70911 538.038 4.56999ZM551.802 62.059C552.857 61.8101 553.794 62.4324 554.614 63.9333C553.926 65.6759 553.215 67.4623 552.476 69.2927C551.751 71.1085 551.136 72.9242 550.631 74.74C549.73 76.8486 548.376 79.8505 546.56 83.7309C544.744 87.5967 542.643 91.6089 540.264 95.7676C537.899 99.9262 535.446 103.572 532.913 106.691C530.372 109.818 528 111.641 525.796 112.168C522.67 112.915 519.653 111.948 516.747 109.269C513.84 106.596 512.669 103.162 513.232 98.9598C513.452 97.8103 513.84 95.4893 514.404 91.9896C514.975 88.4972 515.692 84.4923 516.571 79.9822C517.45 75.4722 518.343 71.0792 519.265 66.8034C520.202 62.513 521.147 58.9181 522.106 56.026C523.058 53.1413 523.9 51.6038 524.625 51.4281C524.932 51.3549 525.364 51.3329 525.913 51.3695C526.455 51.3915 527.063 51.472 527.729 51.6038C529.523 51.9552 531.397 52.6142 533.352 53.566C535.3 54.5032 535.944 56.2237 535.285 58.7204L535.168 59.2183C533.469 63.8675 531.866 68.7949 530.365 74.0078C528.878 79.2062 527.553 84.28 526.382 89.2367C526.265 89.9249 525.928 91.6089 525.386 94.3033C524.859 96.9976 524.544 99.6187 524.449 102.152C524.346 104.671 524.815 106.128 525.855 106.516C526.008 106.633 526.162 106.677 526.323 106.633C526.909 106.501 527.846 105.805 529.135 104.553C534.069 98.3667 538.25 91.6528 541.669 84.4045C545.103 77.1634 548.376 69.8931 551.48 62.5862C551.539 62.2567 551.605 62.0883 551.685 62.0883C551.758 62.0737 551.802 62.059 551.802 62.059Z" fill="#FFEEDB"/>
<mask id="mask0_84_159" style="mask-type:luminance" maskUnits="userSpaceOnUse" x="0" y="0" width="134" height="120">
<path d="M0 0H133.077V119.4H0V0Z" fill="white"/>
</mask>
<g mask="url(#mask0_84_159)">
<path fill-rule="evenodd" clip-rule="evenodd" d="M21.1887 94.7851L39.5293 118.829C39.5293 118.829 56.2371 81.9284 96.147 69.2328C96.147 69.2328 60.4763 76.4519 38.5189 104.706L30.7653 94.5948L27.9319 90.9706L30.7946 86.4459C23.8538 86.0505 16.8909 86.3067 11.6414 79.0291C6.38446 71.7588 13.4059 52.0125 28.2394 47.1876C28.8837 46.9606 29.5573 46.7922 30.2016 46.6238C29.4181 53.14 28.5176 61.6477 28.1808 62.5189C35.0924 45.7525 64.6935 -15.6682 84.718 28.3638C84.718 28.3638 85.0841 26.7677 85.3916 24.3223C105.109 11.5754 110.248 26.57 110.497 39.6024C75.4489 36.2857 50.7313 71.9272 47.3341 77.1255L47.3048 77.1475L47.2242 77.2646C47.0265 77.5721 46.9167 77.7405 46.9167 77.7405L49.018 75.7197C71.9931 53.982 94.9097 50.1016 104.772 49.4865L116.508 66.004C116.508 66.004 67.8125 77.433 49.5525 118.551C49.5525 118.551 82.5289 79.0071 132.352 73.472L116.508 47.2974C124.935 11.429 100.723 5.11046 86.7095 11.8829C86.0945 12.1611 85.56 12.3295 85.1354 12.4394C83.8468 5.98173 80.0249 0.0292863 70.419 0C68.8522 0 67.1389 0.139111 65.228 0.475903C42.1943 4.57599 34.9533 27.185 31.2412 39.2656C31.2119 39.3462 31.19 39.4853 31.1607 39.6317C30.0917 39.7708 29.2498 39.9099 28.7958 39.9685C26.409 40.276 24.0514 40.8105 21.6939 41.5646C3.7487 47.4072 -2.59911 68.1639 1.64008 80.0981C5.3448 90.5752 12.1978 92.8522 21.1301 94.7632L21.1887 94.7851Z" fill="#BA3B46"/>
</g>
<path d="M215.246 238.264C215.809 235.474 216.315 232.729 216.768 230.034C217.237 227.34 217.149 224.668 216.505 222.01C216.11 220.37 215.172 218.437 213.693 216.211C212.229 213.985 210.238 213.18 207.719 213.78C205.061 214.425 202.25 216.24 199.285 219.228C196.334 222.2 193.471 225.729 190.704 229.829C187.929 233.929 185.344 238.147 182.943 242.481C180.541 246.815 178.477 250.791 176.763 254.4C175.043 258.017 173.776 260.778 172.956 262.688C170.65 268.099 168.417 274.279 166.25 281.227C164.082 288.16 162.545 295.13 161.652 302.137C160.751 309.151 161.007 315.609 162.413 321.525C162.801 323.15 163.526 325.207 164.58 327.704C165.649 330.186 167.172 332.287 169.149 334.001C171.118 335.721 173.513 336.248 176.324 335.582C179.582 334.806 182.899 332.675 186.281 329.198C189.679 325.727 192.937 321.539 196.063 316.634C199.204 311.736 202.074 306.72 204.673 301.581C207.265 296.426 209.396 291.616 211.058 287.143C212.734 282.676 213.84 279.199 214.367 276.717C210.399 278.459 205.889 280.714 200.837 283.482C195.778 286.257 190.953 289.178 186.369 292.238C181.801 295.306 178.125 298.264 175.358 301.112C175.006 301.639 174.691 301.983 174.42 302.137C174.142 302.276 173.93 302.364 173.776 302.401C172.758 302.657 171.99 302.335 171.463 301.434C170.935 300.541 170.584 299.728 170.408 299.003C170.291 298.535 170.233 297.993 170.233 297.363C170.233 296.741 170.474 296.133 170.965 295.548C171.433 294.808 172.29 293.834 173.542 292.619C177.657 288.812 182.628 284.851 188.449 280.729C194.262 276.592 200.295 272.873 206.548 269.571C212.793 266.276 218.423 264.021 223.446 262.806C223.739 262.747 224.441 262.586 225.554 262.308C226.667 262.037 227.319 261.971 227.517 262.103C228.586 261.986 229.603 262.645 230.562 264.065C231.514 265.471 232.085 266.547 232.261 267.286C232.532 268.458 231.917 269.468 230.416 270.303C228.966 270.793 227.407 271.321 225.73 271.884C224.068 272.455 222.457 273.07 220.898 273.729C221.249 277.112 220.839 281.446 219.668 286.733C218.496 292.004 216.695 297.59 214.279 303.484C211.878 309.385 208.89 315.023 205.318 320.412C201.745 325.8 197.732 330.479 193.281 334.44C188.844 338.386 184.114 340.956 179.077 342.172C173.608 343.475 168.863 343.24 164.844 341.469C160.817 339.711 157.537 337.149 155.004 333.766C152.485 330.369 150.83 326.972 150.025 323.575C148.817 318.537 148.575 312.299 149.293 304.861C150.018 297.422 151.504 289.449 153.774 280.934C156.036 272.404 158.884 263.889 162.325 255.396C165.759 246.888 169.705 239.018 174.157 231.791C178.608 224.55 183.331 218.488 188.331 213.605C193.325 208.728 198.501 205.653 203.853 204.379C207.382 203.523 210.369 203.786 212.815 205.17C215.275 206.539 217.193 208.348 218.584 210.588C219.968 212.836 220.912 214.996 221.425 217.06C221.637 217.961 221.842 219.638 222.04 222.098C222.23 224.543 222.282 227.186 222.186 230.034C222.084 232.868 221.747 235.379 221.161 237.561C220.59 239.75 219.712 240.98 218.526 241.251C217.779 241.427 217.091 241.324 216.446 240.929C215.817 240.519 215.429 240.021 215.275 239.435C215.216 239.128 215.202 238.893 215.246 238.732C215.282 238.579 215.282 238.425 215.246 238.264Z" fill="#FFEEDB"/>
<path d="M240.203 316.077C239.617 316.238 239.031 316.253 238.445 316.136C237.86 316.019 237.252 315.975 236.63 315.989C233.503 315.33 231.321 313.192 230.069 309.576C228.803 305.966 228.327 301.514 228.634 296.221C228.927 290.913 229.645 285.378 230.772 279.616C231.885 273.861 233.24 268.443 234.843 263.362C236.439 258.288 237.977 254.246 239.441 251.237C240.217 249.209 241.564 247.957 243.483 247.489C245.254 247.064 247.063 247.415 248.901 248.543C250.731 249.656 252.012 251.142 252.737 252.994C251.976 254.268 250.899 256.758 249.516 260.462C248.124 264.174 246.763 268.45 245.415 273.29C244.083 278.137 242.933 282.947 241.96 287.728C240.979 292.494 240.415 296.499 240.261 299.735C240.1 302.979 240.554 304.875 241.608 305.417C242.348 305.241 243.409 303.975 244.8 301.61C246.206 299.23 247.744 296.192 249.428 292.502C251.126 288.812 252.825 284.968 254.524 280.963C256.222 276.965 257.76 273.304 259.151 269.98C259.444 268.516 259.868 266.7 260.439 264.533C261.025 262.366 261.874 260.367 262.987 258.529C264.115 256.677 265.506 255.557 267.146 255.162C269.057 254.715 271.129 254.737 273.355 255.22C275.58 255.711 276.371 256.889 275.727 258.764C275.449 259.606 274.973 261.561 274.292 264.621C273.626 267.667 272.989 271.027 272.388 274.696C271.78 278.371 271.429 281.622 271.334 284.448C271.466 288.314 271.868 290.649 272.535 291.447C272.923 291.799 273.34 291.931 273.794 291.828C274.965 291.535 276.327 290.232 277.894 287.904C279.453 285.583 281.086 282.771 282.785 279.469C284.498 276.174 286.094 272.865 287.558 269.541C289.037 266.224 290.267 263.354 291.249 260.931C292.244 258.493 292.786 257.109 292.889 256.772C292.889 256.772 292.903 256.728 292.947 256.626C293.006 256.531 293.101 256.465 293.24 256.421C294.448 256.128 295.48 256.831 296.344 258.529C295.641 260.272 294.455 263.376 292.801 267.843C291.139 272.294 289.177 276.98 286.914 281.9C284.644 286.82 282.141 291.213 279.388 295.079C276.635 298.945 273.779 301.229 270.836 301.932C269.35 302.305 267.534 301.954 265.389 300.877C262.965 299.281 261.289 296.836 260.351 293.556C259.414 290.261 258.829 287.142 258.594 284.214L258.506 282.808C258.096 284.316 257.189 286.761 255.783 290.159C254.392 293.541 252.796 297.173 250.98 301.053C249.179 304.919 247.334 308.302 245.445 311.186C243.57 314.056 241.821 315.689 240.203 316.077Z" fill="#FFEEDB"/>
<path d="M311.741 226.914C315.329 228.108 317.869 230.209 319.355 233.211C320.856 236.198 321.706 239.434 321.903 242.905C322.116 246.382 321.969 249.67 321.464 252.774C321.244 255.161 320.651 258.383 319.678 262.439C318.696 266.502 317.657 270.976 316.544 275.852C315.446 280.735 314.435 285.48 313.498 290.085C312.561 294.676 312.041 298.717 311.946 302.21C313.308 302.019 314.94 300.364 316.837 297.26C318.748 294.156 320.82 290.224 323.045 285.458C325.271 280.699 327.416 275.764 329.488 270.668C331.553 265.558 333.34 260.938 334.848 256.816C336.371 252.701 337.491 249.846 338.216 248.264C338.838 247.664 339.226 247.342 339.387 247.298C339.519 247.261 339.929 247.312 340.617 247.444C341.942 247.759 342.411 248.433 342.023 249.465C341.65 250.505 340.778 252.913 339.417 256.699C338.047 260.469 336.385 264.972 334.438 270.2C332.483 275.413 330.338 280.684 327.995 286.014C325.667 291.33 323.338 296.111 320.995 300.364C318.653 304.604 316.441 307.598 314.377 309.355C314.099 309.568 313.82 309.743 313.527 309.883C313.249 310.014 312.971 310.124 312.678 310.205C309.413 310.981 306.74 309.941 304.654 307.071C302.56 304.201 301.227 301.521 300.641 299.017C299.66 295.664 299.558 291.505 300.319 286.541C301.095 281.585 302.201 276.35 303.629 270.844C305.049 265.338 306.426 260.008 307.758 254.854C309.105 249.685 309.962 245.094 310.335 241.089C310.701 237.091 310.138 234.251 308.637 232.567C308.439 232.318 308.139 232.01 307.729 231.659C307.319 231.293 306.916 230.897 306.528 230.487C303.438 238.592 301.095 245.533 299.499 251.31C297.918 257.072 296.263 261.897 294.55 265.777C293.671 266.773 292.939 267.344 292.353 267.476C291.607 267.652 291.036 267.359 290.626 266.597C290.216 265.821 290.054 265.331 290.157 265.133C291.248 262.541 292.427 259.144 293.701 254.941C294.967 250.724 296.307 246.185 297.713 241.323C299.133 236.447 300.495 231.805 301.784 227.412C298.306 225.267 296 222.653 294.872 219.564C293.737 216.459 293.496 213.318 294.14 210.133C294.784 206.934 295.941 204.115 297.625 201.67C299.324 199.232 301.322 197.65 303.629 196.925C305.386 196.361 306.909 196.83 308.197 198.331C309.486 199.817 310.496 201.604 311.243 203.69C311.983 205.784 312.283 207.549 312.151 208.991C311.565 213.64 310.335 218.941 308.461 224.894C308.988 225.208 309.559 225.531 310.189 225.86C310.833 226.175 311.346 226.526 311.741 226.914ZM305.21 206.414C304.624 206.553 303.907 207.512 303.072 209.284C302.252 211.041 301.82 213.025 301.784 215.229C301.762 217.418 302.64 219.241 304.419 220.706C304.888 219.322 305.305 217.806 305.679 216.166C306.045 214.512 306.279 212.886 306.382 211.305C306.77 207.754 306.382 206.121 305.21 206.414Z" fill="#FFEEDB"/>
<path d="M398.311 266.993C398.253 269.358 398.589 270.449 399.336 270.273C400.508 269.98 402.06 268.509 403.993 265.851C405.94 263.201 407.946 260.096 409.996 256.538C412.046 252.987 413.848 249.736 415.414 246.786C416.974 243.842 417.948 241.858 418.343 240.84C419.939 237.172 421.338 233.9 422.531 231.03C423.739 228.159 424.405 226.629 424.522 226.432C424.581 226.102 424.764 225.904 425.079 225.846C425.957 225.634 426.814 226.278 427.656 227.779C426.382 231.059 424.727 235.298 422.677 240.489C420.642 245.665 418.233 250.937 415.444 256.304C412.669 261.678 409.711 266.305 406.57 270.185C403.444 274.051 400.251 276.379 396.993 277.155C396.408 277.295 395.771 277.287 395.09 277.126C394.423 276.972 393.691 276.833 392.893 276.716C390.821 275.955 389.415 274.49 388.676 272.323C387.929 270.156 387.512 268.223 387.417 266.525C387.373 261.216 387.68 255.981 388.325 250.827C388.969 245.673 389.701 240.57 390.521 235.51C390.909 234.478 390.96 234.002 390.667 234.075C390.667 234.075 390.653 234.207 390.638 234.456C390.616 234.69 390.492 234.983 390.257 235.335C387.505 241.47 384.788 247.598 382.116 253.726C379.436 259.84 376.822 266.1 374.267 272.499C374.209 272.814 374.062 273.158 373.828 273.524C373.608 273.897 373.14 274.249 372.422 274.578C371.207 274.717 369.874 274.337 368.41 273.436C366.96 272.521 365.957 271.584 365.393 270.625C364.222 269.029 363.504 267.242 363.255 265.265C363.021 263.296 362.941 261.443 363.021 259.701C363.446 254.92 364.134 250.11 365.071 245.263C366.023 240.401 367.216 235.386 368.644 230.209C364.251 239.391 360.049 248.836 356.051 258.559C352.046 268.267 348.239 278.019 344.629 287.816C344.315 288.504 343.963 289.514 343.575 290.861C343.202 292.194 342.645 292.941 341.906 293.116C340.749 293.548 339.124 293.468 337.015 292.882C334.928 292.296 333.413 291.652 332.476 290.949C330.894 289.602 329.972 287.991 329.693 286.117C329.401 284.228 329.335 282.31 329.488 280.377C330.074 275.559 330.601 271.525 331.07 268.282C331.524 265.046 331.97 262.088 332.417 259.408C332.871 256.714 333.464 253.8 334.203 250.651C334.928 247.51 335.741 243.557 336.664 238.79C337.052 237.136 337.667 235.972 338.509 235.305C339.365 234.624 340.537 234.105 342.023 233.753C345.281 232.977 348.122 233.394 350.545 235.012L351.014 235.1C351.988 235.964 352.449 236.755 352.39 237.473C352.346 238.197 352.171 239.222 351.863 240.548L341.847 279.059C342.33 277.851 343.312 275.428 344.776 271.796C346.255 268.165 348.063 263.786 350.194 258.647C352.339 253.514 354.557 248.213 356.842 242.744C359.126 237.282 361.33 232.142 363.46 227.339C365.606 222.522 367.458 218.51 369.025 215.303C370.606 212.103 371.609 210.397 372.041 210.178C372.159 209.987 372.51 209.819 373.096 209.68C374.282 209.387 375.658 209.409 377.225 209.738C378.785 210.075 380.022 210.514 380.944 211.056C383.126 212.403 384.005 214.776 383.58 218.173L383.463 218.671C382.057 225.275 380.512 231.784 378.836 238.205C377.174 244.611 375.739 251.171 374.531 257.885C374.531 258.515 374.516 258.939 374.501 259.174C374.479 259.408 374.472 259.525 374.472 259.525C374.604 259.488 374.706 259.276 374.765 258.881C374.838 258.471 374.985 258.083 375.204 257.709C376.002 255.82 377.145 252.928 378.631 249.041C380.132 245.138 381.83 241.089 383.727 236.887C385.616 232.692 387.534 228.95 389.467 225.67C391.414 222.39 393.23 220.311 394.914 219.432C395.031 219.256 395.302 219.125 395.734 219.022C396.905 218.729 398.384 218.722 400.186 218.993C402.001 219.271 403.553 219.842 404.842 220.721C406.145 221.585 406.548 222.932 406.043 224.762C404.242 231.615 402.631 238.461 401.211 245.292C399.805 252.108 398.78 259.115 398.135 266.32L398.311 266.993Z" fill="#FFEEDB"/>
<path d="M458.385 247.447C458.927 247.784 459.425 247.901 459.878 247.799C461.05 247.506 462.412 246.203 463.979 243.874C465.538 241.532 467.171 238.683 468.869 235.323C470.568 231.948 472.179 228.55 473.702 225.131C475.224 221.719 476.469 218.798 477.45 216.375C478.446 213.958 478.98 212.567 479.061 212.216C479.94 212.004 480.62 211.952 481.111 212.07C481.616 212.187 482.173 212.802 482.78 213.915C482.092 215.789 480.921 218.966 479.266 223.433C477.604 227.906 475.613 232.65 473.292 237.666C470.963 242.666 468.386 247.111 465.56 250.991C462.727 254.857 459.835 257.141 456.891 257.844C455.09 258.276 453.274 257.947 451.444 256.848C448.764 255.289 446.992 252.858 446.114 249.556C445.25 246.239 444.679 243.054 444.386 240.009C444.445 239.503 444.415 239.035 444.298 238.603C442.929 242.688 441.472 246.906 439.934 251.255C438.39 255.611 436.815 259.506 435.219 262.94C433.616 266.359 431.888 268.768 430.036 270.174C429.875 270.217 429.699 270.305 429.509 270.437C429.311 270.554 429.055 270.657 428.747 270.73C428.161 270.869 427.583 270.891 427.019 270.789C426.448 270.693 425.767 270.584 424.969 270.466C421.023 269.668 418.343 267.296 416.915 263.35C415.495 259.389 414.953 254.557 415.305 248.853C415.656 243.135 416.637 237.226 418.233 231.135C419.815 225.043 421.696 219.391 423.886 214.178C426.089 208.951 428.257 204.894 430.387 202.024C432.847 198.627 435.263 196.65 437.65 196.079C438.822 195.786 439.942 195.801 441.018 196.108C442.109 196.401 443.046 196.841 443.83 197.426C446.992 199.498 448.896 202.222 449.54 205.597C450.185 208.958 450.456 212.355 450.36 215.789C451.429 215.086 452.337 214.647 453.084 214.471C455.581 213.871 458.18 214.559 460.874 216.55C461.767 217.136 462.251 217.575 462.309 217.868C462.382 218.161 462.053 218.71 461.313 219.508C459.534 221.837 458.421 225.161 457.975 229.495C457.521 233.815 457.389 237.366 457.565 240.155C457.345 243.787 457.623 246.217 458.385 247.447ZM440.257 211.894C438.595 214.786 436.962 218.776 435.366 223.872C433.762 228.953 432.386 234.166 431.236 239.511C430.102 244.863 429.369 249.461 429.04 253.305C428.703 257.134 428.996 259.33 429.919 259.894C431.09 259.601 432.466 257.544 434.048 253.715C435.644 249.893 437.423 245.361 439.378 240.126C441.326 234.898 443.2 230.103 445.001 225.746C445.309 224.443 445.631 223.198 445.967 222.027C446.319 220.841 446.919 219.757 447.783 218.776C446.919 211.323 445.616 207.808 443.859 208.233C443.273 208.372 442.702 208.782 442.16 209.463C441.611 210.129 440.974 210.942 440.257 211.894Z" fill="#FFEEDB"/>
<path d="M518.935 185.794C521.256 186.951 522.171 189.154 521.688 192.413L521.659 193.115C521.461 194.272 520.934 196.674 520.077 200.32C519.213 203.951 518.393 208.051 517.617 212.62C516.856 217.189 516.226 221.567 515.743 225.74C515.253 229.921 515.253 233.208 515.743 235.61C516.226 237.997 517.412 238.875 519.287 238.246C522.157 237.096 524.763 234.724 527.106 231.129C529.449 227.52 531.594 223.603 533.549 219.385C535.519 215.153 537.181 211.61 538.528 208.754L538.704 208.52L538.967 207.729C540.036 204.998 541.046 202.655 541.984 200.701C542.921 198.731 543.426 197.589 543.506 197.274C543.506 197.274 543.536 197.23 543.594 197.128C543.668 197.033 543.785 196.974 543.946 196.952C544.956 196.703 545.886 197.333 546.728 198.856C546.567 199.522 546.289 200.305 545.879 201.198C545.469 202.077 545.073 203.095 544.707 204.244C543.668 207.019 542.13 210.68 540.08 215.227C538.03 219.781 535.687 224.408 533.051 229.108C530.43 233.794 527.582 237.88 524.5 241.35C521.432 244.828 518.35 246.936 515.245 247.676C514.498 247.852 513.883 247.925 513.4 247.881C510.135 248.042 507.748 246.9 506.225 244.454C504.702 241.994 503.721 238.905 503.296 235.171C502.864 231.444 502.842 227.461 503.238 223.222C503.626 218.99 504.182 215.102 504.907 211.566C505.625 208.037 506.24 205.343 506.752 203.483C502.55 212.152 498.523 220.82 494.657 229.489C490.806 238.158 487.226 247.032 483.909 256.11C483.418 257.948 482.657 258.995 481.624 259.244C481.332 259.324 480.892 259.273 480.307 259.098C479.721 258.922 479.113 258.834 478.491 258.834C474.815 257.977 472.392 256.52 471.199 254.47C469.991 252.406 469.515 249.543 469.764 245.889C470.313 241.05 470.832 237.016 471.316 233.794C471.784 230.558 472.333 227.607 472.956 224.95C473.585 222.277 474.325 219.319 475.182 216.076C476.038 212.84 477.005 208.893 478.081 204.244C478.432 202.45 478.996 201.22 479.779 200.554C480.556 199.895 481.756 199.368 483.382 198.973C486.347 198.27 489.122 198.702 491.699 200.261L492.226 200.642C493.354 201.447 493.895 202.209 493.837 202.926C493.778 203.651 493.522 204.698 493.075 206.06C492.292 209.384 491.618 212.005 491.055 213.938C490.506 215.871 490.008 217.511 489.561 218.858C489.107 220.205 488.639 221.838 488.155 223.749C487.665 225.667 486.962 228.303 486.047 231.656C485.637 233.809 485.088 235.932 484.407 238.041C483.74 240.149 483.06 242.397 482.357 244.777C482.84 243.546 483.975 240.764 485.754 236.43C487.548 232.081 489.722 227.102 492.285 221.494C494.862 215.893 497.395 210.329 499.899 204.801C502.418 199.258 504.622 194.572 506.518 190.743C508.429 186.921 509.666 184.871 510.237 184.593C513.473 183.817 516.373 184.212 518.935 185.794Z" fill="#FFEEDB"/>
</svg>
