<svg width="25" height="24" viewBox="0 0 25 24" fill="none" xmlns="http://www.w3.org/2000/svg">
<path d="M18.2342 0C17.0612 0.0182447 15.9139 0.345681 14.9079 0.949241C13.902 1.5528 13.0731 2.41111 12.505 3.4375C11.937 2.41111 11.1081 1.5528 10.1022 0.949241C9.09623 0.345681 7.94885 0.0182447 6.77588 0C4.90602 0.0812403 3.14432 0.899223 1.87565 2.27524C0.60698 3.65126 -0.0655307 5.47346 0.00504282 7.34375C0.00504282 14.401 11.4175 22.5521 11.903 22.8979L12.505 23.324L13.1071 22.8979C13.5925 22.5542 25.005 14.401 25.005 7.34375C25.0756 5.47346 24.4031 3.65126 23.1344 2.27524C21.8658 0.899223 20.1041 0.0812403 18.2342 0Z" fill="#BA3B46"/>
</svg>
