<svg width="30" height="31" viewBox="0 0 30 31" fill="none" xmlns="http://www.w3.org/2000/svg">
<path d="M29.4525 27.336L23.6456 21.5271C27.9906 15.7211 26.8059 7.49235 20.9994 3.14769C15.193 -1.19696 6.96351 -0.0123164 2.61849 5.79366C-1.72653 11.5996 -0.541781 19.8284 5.26468 24.173C9.92891 27.663 16.3351 27.663 20.9994 24.173L26.8088 29.9819C27.5388 30.7119 28.7225 30.7119 29.4525 29.9819C30.1825 29.2519 30.1825 28.0684 29.4525 27.3385L29.4525 27.336ZM13.1805 23.0519C8.01995 23.0519 3.83658 18.8688 3.83658 13.7088C3.83658 8.5487 8.01995 4.36568 13.1805 4.36568C18.341 4.36568 22.5243 8.5487 22.5243 13.7088C22.5188 18.8665 18.3387 23.0464 13.1805 23.0519Z" fill="black"/>
</svg>
